<?xml version="1.0" standalone="no"?>
<!DOCTYPE svg PUBLIC "-//W3C//DTD SVG 1.1//EN" "http://www.w3.org/Graphics/SVG/1.1/DTD/svg11.dtd" >
<svg>
<metadata>
Created by FontForge 20110222 at Mon Aug 26 12:20:06 2013
 By Orthosie Webhosting
Copyright (c) 1988, 1990, 1993 Adobe Systems Incorporated.  All Rights Reserved.Helvetica is a trademark of Linotype-Hell AG and/or its subsidiaries.
</metadata>
<defs>
<font id="Helvetica85HeavyHeavy" horiz-adv-x="630" >
  <font-face 
    font-family="Helvetica85HeavyHeavy"
    font-weight="900"
    font-stretch="normal"
    units-per-em="1000"
    panose-1="2 11 10 0 0 0 0 0 0 0"
    ascent="800"
    descent="-200"
    x-height="519"
    cap-height="714"
    bbox="-41 -234 1096 951"
    underline-thickness="50"
    underline-position="-50"
    unicode-range="U+0020-2122"
  />
<missing-glyph horiz-adv-x="502" 
d="M-1 0h500v500h-500v-500zM9 10v480h480v-480h-480z" />
    <glyph glyph-name=".notdef" horiz-adv-x="502" 
d="M-1 0h500v500h-500v-500zM9 10v480h480v-480h-480z" />
    <glyph glyph-name=".null" horiz-adv-x="0" 
 />
    <glyph glyph-name="nonmarkingreturn" horiz-adv-x="333" 
 />
    <glyph glyph-name="space" unicode=" " horiz-adv-x="315" 
 />
    <glyph glyph-name="exclam" unicode="!" horiz-adv-x="296" 
d="M236 714h-175v-177l46 -301h83l46 301v177zM55 0h186v186h-186v-186z" />
    <glyph glyph-name="quotedbl" unicode="&#x22;" horiz-adv-x="500" 
d="M294 354h144v360h-144v-360zM62 354h144v360h-144v-360z" />
    <glyph glyph-name="numbersign" unicode="#" 
d="M531 295h-62l15 110h77v105h-62l26 187h-115l-26 -187h-81l26 187h-115l-26 -187h-89v-105h74l-15 -110h-89v-105h74l-26 -190h115l26 190h81l-26 -190h115l26 190h77v105zM369 405l-15 -110h-81l15 110h81z" />
    <glyph glyph-name="dollar" unicode="$" 
d="M345 272q47 -13 71 -30t24 -44q0 -33 -28 -49.5t-67 -19.5v143zM298 457q-42 12 -64 26.5t-22 36.5q0 33 25.5 48.5t60.5 16.5v-128zM345 819h-47v-90q-51 -2 -99 -15.5t-87.5 -40.5t-62.5 -68.5t-23 -96.5q0 -47 17.5 -81.5t47 -58t64.5 -38.5t80 -28q30 -8 63 -17v-157
q-50 6 -77 31t-30 77h-186q0 -64 23 -111t63.5 -77.5t92.5 -45.5t114 -17v-90h47v90q58 2 108 16.5t89 42t61.5 72t22.5 104.5q0 46 -17 80.5t-46 58.5t-64 39t-80 28q-18 5 -47 12q-14 4 -27 7v136q33 -8 52.5 -28.5t19.5 -57.5h186q0 56 -21 99t-57 71.5t-82 44t-98 18.5
v91z" />
    <glyph glyph-name="percent" unicode="%" horiz-adv-x="1019" 
d="M192 514q0 22 1.5 39t6.5 34t16.5 28t30.5 11t30.5 -11t16.5 -28.5t6 -34t1 -38.5t-1 -38.5t-6 -34t-16.5 -28.5t-30.5 -11t-30.5 11t-16.5 28t-6.5 34t-1.5 39zM359 -27l404 751h-99l-404 -751h99zM75 514q1 -88 43 -140t129 -52q88 0 129.5 52t41.5 140q0 90 -42.5 141
t-128.5 51q-84 0 -127.5 -53t-44.5 -139zM602 183q1 -88 43 -140t129 -52q88 0 129.5 52t41.5 140q0 90 -42.5 141t-128.5 51q-84 0 -127.5 -53t-44.5 -139zM719 183q0 22 1.5 39t6.5 34t16.5 28t30.5 11t30.5 -11t16.5 -28.5t6 -34t1 -38.5t-1 -38.5t-6 -34t-16.5 -28.5
t-30.5 -11t-30.5 11t-16.5 28t-6.5 34t-1.5 39z" />
    <glyph glyph-name="ampersand" unicode="&#x26;" horiz-adv-x="722" 
d="M387 174q-24 -22 -48.5 -36.5t-46.5 -14.5q-36 0 -65 23t-29 59q0 29 25.5 54t57.5 40zM527 0h207l-150 174q33 36 54 81t25 93h-146q-4 -38 -26 -70l-74 89q57 29 89.5 73.5t32.5 103.5q0 42 -16 76t-44 58.5t-65 37.5t-77 13q-39 0 -75.5 -12.5t-65.5 -36.5t-46 -58
t-17 -74q0 -38 17 -71t46 -66q-72 -33 -117 -85t-45 -123q0 -48 19 -88.5t52.5 -70t76.5 -44.5t90 -15q60 0 109 18.5t96 56.5zM334 466q-7 8 -13 16q-19 22 -28 37.5t-9 36.5q0 22 16.5 37.5t39.5 15.5q27 0 43.5 -15t16.5 -40q0 -29 -17 -49t-49 -39z" />
    <glyph glyph-name="quotesingle" unicode="'" horiz-adv-x="296" 
d="M76 354h144v360h-144v-360z" />
    <glyph glyph-name="parenleft" unicode="(" horiz-adv-x="296" 
d="M161 729q-33 -64 -55 -117t-37.5 -105.5t-23.5 -109t-9 -123.5q1 -63 9 -119t23.5 -107.5t37.5 -104t55 -117.5h144q-52 107 -81 219t-29 229q0 122 29 235t81 220h-144z" />
    <glyph glyph-name="parenright" unicode=")" horiz-adv-x="296" 
d="M-9 729q52 -107 81 -220t29 -235q0 -117 -29 -229.5t-81 -218.5h144q33 64 55.5 117t37.5 104.5t23 107t9 119.5q-1 66 -9 123t-23 109.5t-37.5 105t-55.5 117.5h-144z" />
    <glyph glyph-name="asterisk" unicode="*" horiz-adv-x="444" 
d="M297 499l121 38l-31 93l-116 -44v128h-99v-128l-116 44l-31 -93l122 -38l-79 -104l78 -58l74 107l75 -107l79 59z" />
    <glyph glyph-name="plus" unicode="+" horiz-adv-x="600" 
d="M228 325h-180v-144h180v-181h144v181h180v144h-180v181h-144v-181z" />
    <glyph glyph-name="comma" unicode="," horiz-adv-x="316" 
d="M65 0h82q-5 -40 -23.5 -62t-58.5 -32v-80q32 3 63.5 14.5t59.5 34t45.5 59t17.5 87.5v165h-186v-186z" />
    <glyph glyph-name="hyphen" unicode="-" horiz-adv-x="407" 
d="M359 200v144h-311v-144h311z" />
    <glyph glyph-name="period" unicode="." horiz-adv-x="316" 
d="M65 0h186v186h-186v-186z" />
    <glyph glyph-name="slash" unicode="/" horiz-adv-x="407" 
d="M-9 -15h156l269 744h-156z" />
    <glyph glyph-name="zero" unicode="0" 
d="M315 129q-38 0 -61.5 20t-35 53t-14.5 68.5t-3 78.5t3 78.5t14.5 68t35 52.5t61.5 20q40 0 63.5 -20t35 -52.5t14 -67t2.5 -79.5t-3 -80t-13.5 -67t-34.5 -52.5t-64 -20.5zM310 -9q74 0 128.5 28.5t89 78.5t50.5 114.5t16 136.5t-16 136t-50.5 114t-89 78.5t-128.5 28.5
q-72 0 -124.5 -28.5t-85 -78.5t-48 -114t-15.5 -136t15.5 -136.5t48 -114.5t85.5 -78.5t124 -28.5z" />
    <glyph glyph-name="one" unicode="1" 
d="M272 428v-428h180v697h-141q-2 -39 -19.5 -67t-46 -45t-64 -24.5t-76.5 -7.5v-125h167z" />
    <glyph glyph-name="two" unicode="2" 
d="M591 0v144h-331q30 30 53.5 46.5t68.5 45.5l4 2q6 4 19 12q47 29 75 48.5t52 45.5t38 61t14 80q0 54 -20.5 96t-57 69.5t-83.5 41.5t-100 14q-62 0 -113 -19t-87 -54.5t-55.5 -85.5t-19.5 -109q0 -1 1 -11v-11h159q1 64 27 102.5t89 38.5q41 0 65.5 -23.5t24.5 -63.5
q0 -33 -23 -59.5t-68 -56.5l-40 -25q-47 -27 -79.5 -49t-62.5 -48q-52 -44 -80 -104.5t-29 -127.5h559z" />
    <glyph glyph-name="three" unicode="3" 
d="M257 308q30 2 45 2q58 0 91 -20.5t33 -74.5q0 -43 -32.5 -64.5t-80.5 -21.5q-125 0 -125 124h-159v-10q-1 -6 -1 -9q0 -60 22 -106.5t61 -76.5t91 -45t112 -15q54 0 104 13.5t90.5 41t64 70t23.5 99.5q0 62 -30 103t-89 57v2q46 8 71.5 47.5t25.5 88.5q0 51 -22.5 88.5
t-60 60.5t-83.5 33.5t-94 10.5q-116 0 -189.5 -62t-76.5 -175h159q0 48 28.5 73.5t79.5 25.5q43 0 71.5 -18.5t28.5 -51.5q0 -21 -10 -35.5t-26.5 -22.5t-36 -11.5t-40.5 -3.5q-12 0 -27 1h-18v-118z" />
    <glyph glyph-name="four" unicode="4" 
d="M506 299v398h-163l-312 -383v-159h305v-155h170v155h91v144h-91zM163 299l176 225h2v-225h-178z" />
    <glyph glyph-name="five" unicode="5" 
d="M22 216q4 -61 26.5 -104.5t60 -70t87 -38.5t108.5 -12q127 0 206.5 67t79.5 191q0 108 -63 167.5t-171 59.5q-84 0 -136 -50h-2l26 127h309v144h-440l-68 -394h154q19 30 45.5 41.5t65.5 11.5q51 0 80.5 -31.5t29.5 -83.5q0 -50 -33 -81t-83 -31q-42 0 -76.5 24t-35.5 63
h-170z" />
    <glyph glyph-name="six" unicode="6" 
d="M207 237q0 49 31 82.5t78 33.5q56 0 87.5 -33t31.5 -84q0 -44 -33 -75.5t-85 -31.5q-49 0 -79.5 31t-30.5 77zM585 516q-16 93 -81.5 141.5t-161.5 48.5q-76 0 -134.5 -28t-96 -78t-56 -115.5t-18.5 -140.5q0 -70 15 -133t48 -112.5t87 -78.5t128 -29q57 0 108 17
t89.5 50t60 81t21.5 109q0 47 -17 89t-48 73.5t-72.5 49.5t-88.5 18q-55 0 -96.5 -16.5t-66.5 -57.5h-2q2 32 10.5 63t25 57t42.5 41.5t61 15.5q29 0 49 -11q27 -17 35 -54h159z" />
    <glyph glyph-name="seven" unicode="7" 
d="M60 543h334v-2q-8 -6 -24.5 -24t-36.5 -46t-41 -63.5t-38 -72.5q-43 -84 -65.5 -174t-26.5 -161h183q1 80 17.5 165.5t55.5 169.5q16 36 37 72.5t43 68t40 53t29 31.5v137h-507v-154z" />
    <glyph glyph-name="eight" unicode="8" 
d="M317 314q50 0 82.5 -26.5t32.5 -73.5q0 -50 -33.5 -74t-82.5 -24t-83 24.5t-34 73.5q0 48 34.5 74t83.5 26zM29 205q0 -58 24.5 -100t66 -67t92 -36t105.5 -11q54 0 104.5 12t91.5 38t65 67.5t24 96.5q0 65 -35 109t-96 56v2q47 10 75 51t28 90q0 50 -22 87t-59.5 60.5
t-82.5 34.5t-92 11q-46 0 -91.5 -11t-83.5 -34.5t-61 -60.5t-23 -86q0 -52 27.5 -91t76.5 -51v-2q-59 -10 -96.5 -57t-37.5 -108zM316 581q45 0 76 -20t31 -60q0 -41 -32 -61.5t-75 -20.5q-45 0 -75.5 19.5t-30.5 62.5q0 41 30 60.5t76 19.5z" />
    <glyph glyph-name="nine" unicode="9" 
d="M308 343q-51 0 -81.5 33t-30.5 83q0 44 32 76.5t79 32.5q54 0 85.5 -31.5t31.5 -79.5q0 -49 -31.5 -81.5t-84.5 -32.5zM46 181q18 -94 81.5 -142t161.5 -48q81 0 139.5 29t95 81t53.5 119t17 145q0 72 -17 133.5t-52.5 108.5t-91 73t-129.5 26q-54 0 -102.5 -18
t-85.5 -51.5t-58 -80t-21 -101.5q0 -51 17 -94t48 -75.5t74 -50t94 -17.5q49 0 91.5 18.5t64.5 56.5h2q-2 -36 -9.5 -68t-22.5 -56.5t-39.5 -38.5t-57.5 -14q-35 0 -60 16q-28 17 -34 49h-159z" />
    <glyph glyph-name="colon" unicode=":" horiz-adv-x="316" 
d="M251 519h-186v-186h186v186zM65 0h186v186h-186v-186z" />
    <glyph glyph-name="semicolon" unicode=";" horiz-adv-x="316" 
d="M65 0h82q-5 -40 -23.5 -62t-58.5 -32v-80q32 3 64 14.5t59.5 33.5t45 59t17.5 88v165h-186v-186zM251 519h-186v-186h186v186z" />
    <glyph glyph-name="less" unicode="&#x3c;" horiz-adv-x="600" 
d="M554 -8v154l-307 106v2l307 106v154l-508 -190v-142z" />
    <glyph glyph-name="equal" unicode="=" horiz-adv-x="600" 
d="M552 449h-504v-144h504v144zM552 201h-504v-144h504v144z" />
    <glyph glyph-name="greater" unicode="&#x3e;" horiz-adv-x="600" 
d="M46 -8l508 190v142l-508 190v-154l307 -106v-2l-307 -106v-154z" />
    <glyph glyph-name="question" unicode="?" horiz-adv-x="574" 
d="M206 480v19q2 41 24 63.5t62 22.5q28 0 46.5 -16.5t18.5 -44.5q0 -30 -16.5 -48.5t-52.5 -42.5q-3 -3 -11 -8q-38 -28 -59.5 -57.5t-21.5 -81.5v-50h158q1 44 13.5 63.5t52.5 45.5q67 42 95 78t28 102q0 50 -20.5 89t-56 64.5t-80.5 38t-93 12.5q-118 0 -189 -66
t-73 -183h175zM182 0h186v186h-186v-186z" />
    <glyph glyph-name="at" unicode="@" horiz-adv-x="800" 
d="M386 252q-36 0 -56 23t-20 59q0 41 28.5 72.5t70.5 31.5q36 0 57.5 -22.5t21.5 -58.5q0 -44 -28.5 -74.5t-73.5 -30.5zM517 488q-42 58 -123 58q-44 0 -81.5 -18.5t-64 -51t-41 -73.5t-14.5 -85q0 -36 13.5 -69t37 -58.5t53 -39.5t61.5 -14q31 0 55 13.5t41 36.5h2
q2 -49 62 -49q27 0 68 14.5t82 47.5t69 90t28 137q0 67 -28.5 123.5t-78.5 96.5t-112.5 61t-128.5 21q-78 0 -147.5 -28t-122.5 -79t-82.5 -119.5t-29.5 -146.5q0 -80 30 -148t84 -118.5t124.5 -77.5t149.5 -27q91 0 166.5 38.5t128.5 112.5h-98q-38 -28 -86 -43.5
t-103 -15.5q-63 0 -116 19t-92 55.5t-60 88.5t-21 116q0 61 19 113t55 89.5t86.5 58t111.5 20.5q118 0 190 -62.5t72 -179.5q0 -74 -28.5 -113t-64.5 -39q-12 0 -12 20q0 7 1.5 17t3.5 18l44 238h-94z" />
    <glyph glyph-name="A" unicode="A" horiz-adv-x="704" 
d="M351 516h2l79 -250h-162zM-9 0h191l45 128h249l44 -128h194l-267 714h-189z" />
    <glyph glyph-name="B" unicode="B" horiz-adv-x="722" 
d="M250 313h149q46 0 73 -19.5t27 -64.5q0 -42 -26.5 -61t-73.5 -19h-149v164zM64 0h343q60 0 110 11.5t88 37t59 68.5t21 105q0 61 -33 107t-90 62q43 22 68.5 59.5t25.5 84.5q0 52 -21 87.5t-57 55.5t-81 28t-99 8h-334v-714zM250 570h144q33 0 54.5 -16.5t21.5 -52.5
q0 -35 -23.5 -51.5t-52.5 -16.5h-144v137z" />
    <glyph glyph-name="C" unicode="C" horiz-adv-x="759" 
d="M724 459q-2 62 -30.5 112.5t-75.5 86t-104 53.5t-116 18q-79 0 -145 -28.5t-113.5 -79.5t-72.5 -119t-25 -145t25 -145t72.5 -119t113.5 -79.5t145 -28.5q68 0 126 20t101.5 57.5t69 92t29.5 122.5h-186q-5 -62 -42 -97t-102 -35q-43 0 -75 17.5t-52 47.5t-29.5 68
t-9.5 79t9.5 79t29.5 68t52 47.5t75 17.5q60 0 98.5 -28.5t45.5 -81.5h186z" />
    <glyph glyph-name="D" unicode="D" horiz-adv-x="759" 
d="M64 0h307q165 0 257.5 93t92.5 267q0 166 -93 260t-257 94h-307v-714zM250 554h88q96 0 146.5 -48.5t50.5 -144.5q0 -107 -45.5 -153t-151.5 -48h-88v394z" />
    <glyph glyph-name="E" unicode="E" horiz-adv-x="685" 
d="M64 0h579v160h-393v136h350v144h-350v125h383v149h-569v-714z" />
    <glyph glyph-name="F" unicode="F" horiz-adv-x="611" 
d="M64 0h186v275h294v144h-294v146h340v149h-526v-714z" />
    <glyph glyph-name="G" unicode="G" horiz-adv-x="778" 
d="M723 391h-300v-138h130q-8 -49 -51.5 -78.5t-112.5 -29.5q-43 0 -75 17.5t-52 47.5t-29.5 68t-9.5 79t9.5 79t29.5 68t52 47.5t75 17.5q58 0 97.5 -26.5t43.5 -71.5h186q-6 64 -35.5 113.5t-75 81.5t-100.5 47.5t-112 15.5q-79 0 -145 -28.5t-113.5 -79.5t-72.5 -119
t-25 -145t25 -145t72.5 -119t113.5 -79.5t145 -28.5q56 0 110.5 22.5t88.5 70.5l11 -78h120v391z" />
    <glyph glyph-name="H" unicode="H" horiz-adv-x="741" 
d="M62 0h186v294h245v-294h186v714h-186v-260h-245v260h-186v-714z" />
    <glyph glyph-name="I" unicode="I" horiz-adv-x="315" 
d="M64 0h186v714h-186v-714z" />
    <glyph glyph-name="J" unicode="J" horiz-adv-x="593" 
d="M528 714h-186v-476q0 -50 -16.5 -71.5t-50.5 -21.5q-72 0 -72 73v66h-175v-31q0 -62 13 -111t42 -84t77.5 -54t117.5 -19q250 0 250 241v488z" />
    <glyph glyph-name="K" unicode="K" horiz-adv-x="741" 
d="M64 0h186v220l76 80l192 -300h231l-297 433l264 281h-231l-235 -274v274h-186v-714z" />
    <glyph glyph-name="L" unicode="L" horiz-adv-x="611" 
d="M64 0h519v160h-333v554h-186v-714z" />
    <glyph glyph-name="M" unicode="M" horiz-adv-x="926" 
d="M65 0h175v542h2l150 -542h142l150 542h2v-542h175v714h-274l-123 -476h-2l-123 476h-274v-714z" />
    <glyph glyph-name="N" unicode="N" horiz-adv-x="741" 
d="M62 0h175v445h2l248 -445h191v714h-175v-440h-2l-248 440h-191v-714z" />
    <glyph glyph-name="O" unicode="O" horiz-adv-x="778" 
d="M37 357q0 -78 23.5 -145.5t69 -118.5t111.5 -79.5t148 -28.5t148 28.5t111.5 79.5t69 118.5t23.5 145.5t-23.5 145.5t-69 118.5t-111.5 79.5t-148 28.5t-148 -28.5t-111.5 -79.5t-69 -118.5t-23.5 -145.5zM223 357q0 41 9.5 79t29.5 68t52 47.5t75 17.5t75 -17.5
t52 -47.5t29.5 -68t9.5 -79t-9.5 -79t-29.5 -68t-52 -47.5t-75 -17.5t-75 17.5t-52 47.5t-29.5 68t-9.5 79z" />
    <glyph glyph-name="P" unicode="P" horiz-adv-x="685" 
d="M64 0h186v238h153q123 0 190.5 59t67.5 187q0 61 -21 105.5t-56.5 72t-82 40t-98.5 12.5h-339v-714zM250 565h125q45 0 72.5 -23t27.5 -71q0 -47 -27 -68t-73 -21h-125v183z" />
    <glyph glyph-name="Q" unicode="Q" horiz-adv-x="778" 
d="M738 14l-86 83q43 50 66 117t23 143q0 78 -23.5 145.5t-69 118.5t-111.5 79.5t-148 28.5t-148 -28.5t-111.5 -79.5t-69 -118.5t-23.5 -145.5t23.5 -145.5t69 -118.5t111.5 -79.5t148 -28.5q94 0 166 37l98 -96zM370 204l56 -55q-15 -4 -37 -4q-43 0 -75 17.5t-52 47.5
t-29.5 68t-9.5 79t9.5 79t29.5 68t52 47.5t75 17.5t75 -17.5t52 -47.5t29.5 -68t9.5 -79q0 -38 -7.5 -72.5t-24.5 -61.5l-70 68z" />
    <glyph glyph-name="R" unicode="R" horiz-adv-x="722" 
d="M64 0h186v260h141q31 0 51 -12t31 -32.5t15.5 -44t6.5 -57.5q0 -1 1 -12q3 -34 7 -61.5t13 -40.5h184q-8 8 -13 26t-8.5 40.5t-4.5 36.5t-3 46l-1 12q-2 29 -8.5 55.5t-18 50.5t-31 41.5t-46.5 23.5v2q54 21 83 70t29 109q0 52 -20.5 90.5t-56 63t-80 36t-93.5 11.5h-364
v-714zM250 565h148q41 0 67.5 -19.5t26.5 -57.5q0 -84 -86 -84h-156v161z" />
    <glyph glyph-name="S" unicode="S" horiz-adv-x="667" 
d="M23 240q0 -66 24.5 -115t68 -80t98.5 -45.5t119 -14.5q63 0 118 12.5t98.5 40.5t69 74.5t25.5 111.5q0 46 -17 80.5t-46 58.5t-64 39t-80 28q-26 7 -65 17q-74 17 -108 32.5t-34 44.5q0 32 27 46.5t63 14.5q48 0 81.5 -20t33.5 -66h186q0 58 -24 102t-64.5 72.5t-91.5 42
t-106 13.5q-53 0 -104.5 -12.5t-93.5 -39t-67.5 -68t-25.5 -97.5q0 -47 17.5 -81.5t47 -58t64.5 -38.5t80 -28q17 -5 55 -14q78 -20 114 -37.5t36 -52.5q0 -37 -33.5 -55t-80.5 -18q-63 0 -97.5 25.5t-37.5 85.5h-186z" />
    <glyph glyph-name="T" unicode="T" horiz-adv-x="648" 
d="M630 714h-612v-160h213v-554h186v554h213v160z" />
    <glyph glyph-name="U" unicode="U" horiz-adv-x="741" 
d="M681 714h-186v-430q0 -71 -29 -105t-96 -34t-96 34t-29 105v430h-186v-419q0 -157 75.5 -233.5t235.5 -76.5t235.5 76.5t75.5 233.5v419z" />
    <glyph glyph-name="V" unicode="V" horiz-adv-x="648" 
d="M659 714h-194l-140 -531h-2l-140 531h-194l225 -714h214z" />
    <glyph glyph-name="W" unicode="W" horiz-adv-x="963" 
d="M963 714h-186l-101 -522h-2l-105 522h-175l-105 -522h-2l-101 522h-186l193 -714h189l98 492h2l98 -492h186z" />
    <glyph glyph-name="X" unicode="X" horiz-adv-x="704" 
d="M-8 0h214l146 238l134 -238h226l-252 375l231 339h-212l-127 -222l-120 222h-219l233 -339z" />
    <glyph glyph-name="Y" unicode="Y" horiz-adv-x="667" 
d="M687 714h-211l-142 -290l-142 290h-211l260 -448v-266h186v266z" />
    <glyph glyph-name="Z" unicode="Z" horiz-adv-x="667" 
d="M24 0h619v160h-388l375 410v144h-584v-160h344l-366 -402v-152z" />
    <glyph glyph-name="bracketleft" unicode="[" horiz-adv-x="370" 
d="M69 -174h294v144h-135v615h135v144h-294v-903z" />
    <glyph glyph-name="backslash" unicode="\" horiz-adv-x="407" 
d="M147 729h-156l269 -744h156z" />
    <glyph glyph-name="bracketright" unicode="]" horiz-adv-x="370" 
d="M301 729h-294v-144h135v-615h-135v-144h294v903z" />
    <glyph glyph-name="asciicircum" unicode="^" horiz-adv-x="600" 
d="M206 332l94 238l93 -238h160l-162 365h-182l-162 -365h159z" />
    <glyph glyph-name="underscore" unicode="_" horiz-adv-x="500" 
d="M500 -125v50h-500v-50h500z" />
    <glyph glyph-name="grave" unicode="`" horiz-adv-x="296" 
d="M145 724h-180l157 -149h120z" />
    <glyph glyph-name="a" unicode="a" horiz-adv-x="593" 
d="M199 149q0 28 19 43t51 23q12 3 40 9q23 4 38.5 8t26.5 11q0 -84 -23.5 -118.5t-80.5 -34.5q-31 0 -51 14.5t-20 44.5zM209 359q12 65 85 65q31 0 56.5 -13.5t25.5 -40.5q0 -23 -10.5 -33t-34.5 -15q-21 -4 -69 -11q-55 -7 -91.5 -15t-69 -25t-52.5 -48.5t-20 -80.5
q0 -77 49.5 -117t127.5 -40q49 0 94.5 15.5t76.5 48.5q4 -32 10 -49h171q-13 27 -16.5 57.5t-3.5 75.5v227q0 53 -19.5 87.5t-53.5 53.5t-76 26t-93 7q-48 0 -90 -8.5t-75 -27.5q-36 -21 -57.5 -55.5t-23.5 -83.5h159z" />
    <glyph glyph-name="b" unicode="b" 
d="M57 0h162v60h2q51 -75 143 -75q59 0 103.5 23.5t73 63.5t42 91.5t13.5 107.5q0 51 -13.5 98.5t-41.5 84.5t-69.5 58.5t-94.5 21.5q-95 0 -148 -72h-2v252h-170v-714zM325 404q27 0 46.5 -12t31.5 -32t17.5 -44.5t5.5 -50.5q0 -28 -5.5 -54.5t-17.5 -48t-32 -34.5t-47 -13
q-55 0 -79 39t-24 111q0 38 9.5 65.5t24.5 43.5t33 23t37 7z" />
    <glyph glyph-name="c" unicode="c" horiz-adv-x="593" 
d="M560 329q-9 98 -81.5 151.5t-174.5 53.5q-62 0 -112 -20.5t-86 -58.5t-55 -90t-19 -114q0 -58 20.5 -107.5t57 -85t86.5 -54.5t108 -19q106 0 178 58.5t83 160.5h-165q-6 -43 -30 -66t-67 -23q-50 0 -75.5 40t-25.5 96q0 31 4.5 57t16 48t33.5 35t56 13q33 0 57.5 -21.5
t25.5 -53.5h165z" />
    <glyph glyph-name="d" unicode="d" 
d="M306 404q52 0 76.5 -41t24.5 -103q0 -28 -4.5 -53t-15.5 -46t-31.5 -33.5t-49.5 -12.5q-28 0 -48 13t-32.5 34.5t-18 48t-5.5 54.5q0 26 5.5 50.5t18 44.5t32.5 32t48 12zM571 714h-170v-251h-2q-53 71 -148 71q-53 0 -94.5 -21.5t-69 -58.5t-41.5 -84.5t-14 -98.5
q0 -56 14 -107.5t42 -91.5t72.5 -63.5t103.5 -23.5q93 0 143 75h2v-60h162v714z" />
    <glyph glyph-name="e" unicode="e" horiz-adv-x="611" 
d="M202 313q8 48 37 77t73 29q42 0 70.5 -30.5t30.5 -75.5h-211zM583 218v11q1 6 1 10q0 63 -17.5 116.5t-52 94t-86 62.5t-116.5 22q-57 0 -108 -20t-89.5 -57t-60.5 -87t-22 -109q0 -129 78 -202.5t206 -73.5q93 0 164.5 43.5t93.5 128.5h-159q-12 -27 -38.5 -42
t-58.5 -15q-53 0 -83.5 32t-32.5 86h381z" />
    <glyph glyph-name="f" unicode="f" horiz-adv-x="370" 
d="M94 0h170v409h102v110h-102v23q0 33 15 42.5t48 9.5q22 0 46 -3v120l-27 1q-37 2 -55 2q-110 0 -153.5 -42t-43.5 -153h-82v-110h82v-409z" />
    <glyph glyph-name="g" unicode="g" horiz-adv-x="611" 
d="M398 273q0 -52 -26 -86.5t-77 -34.5q-49 0 -73.5 35.5t-24.5 86.5q0 55 23.5 92.5t75.5 37.5q53 0 77.5 -37.5t24.5 -93.5zM559 519h-163v-65h-2q-45 80 -139 80q-53 0 -96 -19.5t-72.5 -55t-44.5 -81.5t-15 -98q0 -116 57.5 -187t170.5 -71q41 0 78 20t60 56h2v-49
q0 -28 -3 -48.5t-12 -37t-27 -26t-47 -9.5q-41 0 -62 11q-23 12 -29 45h-170q7 -50 30 -83t57.5 -51t76 -25t91.5 -7q85 0 138.5 24.5t79.5 62t33.5 77t7.5 81.5v456z" />
    <glyph glyph-name="h" unicode="h" 
d="M57 0h170v283q0 47 23.5 79t68.5 32q55 0 70 -32.5t15 -110.5v-251h170v333q0 36 -6 68.5t-24.5 63t-57 50t-99.5 19.5q-48 0 -93.5 -23.5t-64.5 -62.5h-2v266h-170v-714z" />
    <glyph glyph-name="i" unicode="i" horiz-adv-x="296" 
d="M63 0h170v519h-170v-519zM233 714h-170v-130h170v130z" />
    <glyph glyph-name="j" unicode="j" horiz-adv-x="296" 
d="M233 519h-170v-507q0 -26 -13 -36.5t-41 -11.5h-34v-138h86q92 0 132 39t40 135v519zM233 714h-170v-130h170v130z" />
    <glyph glyph-name="k" unicode="k" horiz-adv-x="593" 
d="M57 0h170v166l44 43l127 -209h205l-214 323l190 196h-197l-155 -173v368h-170v-714z" />
    <glyph glyph-name="l" unicode="l" horiz-adv-x="296" 
d="M63 0h170v714h-170v-714z" />
    <glyph glyph-name="m" unicode="m" horiz-adv-x="926" 
d="M57 0h170v253q0 78 20 109.5t67 31.5q33 0 48.5 -25.5t15.5 -73.5v-295h170v254q0 73 15 106.5t65 33.5q33 0 52 -23.5t19 -65.5v-305h170v310q0 45 -6.5 82.5t-25 69.5t-55.5 52t-96 20q-99 0 -162 -84q-20 45 -59 64.5t-92 19.5q-47 0 -86 -23t-63 -63h-2v71h-165v-519
z" />
    <glyph glyph-name="n" unicode="n" 
d="M57 0h170v283q0 47 23.5 79t68.5 32q55 0 70 -32.5t15 -110.5v-251h170v333q0 36 -6 68.5t-24.5 63t-57 50t-99.5 19.5q-48 0 -94 -23.5t-69 -62.5h-2v71h-165v-519z" />
    <glyph glyph-name="o" unicode="o" horiz-adv-x="611" 
d="M202 259q0 27 5.5 52.5t17.5 46.5t32 33.5t48 12.5t48.5 -12.5t32.5 -34t17.5 -47t5.5 -51.5t-5.5 -51.5t-17.5 -46.5t-32.5 -33.5t-48.5 -12.5t-48 12.5t-32 33.5t-17.5 46t-5.5 52zM32 259q0 -58 20 -108t56.5 -87.5t87 -58t109.5 -20.5t110 20.5t87.5 58t56.5 87.5
t20 108t-20 108.5t-57 88t-87.5 58t-109.5 20.5t-109.5 -20.5t-87 -58t-56.5 -88t-20 -108.5z" />
    <glyph glyph-name="p" unicode="p" 
d="M325 404q27 0 46.5 -12t31.5 -32t17.5 -44.5t5.5 -50.5q0 -28 -5.5 -54.5t-17.5 -48t-32 -34.5t-47 -13q-55 0 -79 39t-24 111q0 38 9.5 65.5t24.5 43.5t33 23t37 7zM57 -174h170v230h2q53 -71 148 -71q53 0 94.5 21.5t69 58.5t41.5 84.5t14 98.5q0 56 -13.5 107.5
t-42 92t-73 63.5t-103.5 23q-92 0 -143 -75h-2v60h-162v-693z" />
    <glyph glyph-name="q" unicode="q" 
d="M202 254q0 29 5.5 55t18 47.5t32.5 34.5t48 13q29 0 49 -12.5t31.5 -34t16 -48t4.5 -54.5q0 -39 -9.5 -66t-24.5 -43.5t-33 -23.5t-37 -7q-27 0 -46.5 12t-31.5 32t-17.5 44.5t-5.5 50.5zM571 519h-162v-60h-2q-50 75 -143 75q-59 0 -103.5 -23t-72.5 -63.5t-42 -92
t-14 -107.5q0 -51 14 -98.5t41.5 -84.5t69 -58.5t94.5 -21.5q96 0 148 72h2v-231h170v693z" />
    <glyph glyph-name="r" unicode="r" horiz-adv-x="426" 
d="M63 0h170v257q0 52 34 87.5t94 35.5q28 0 65 -10v155q-17 4 -40 4q-55 0 -96 -26t-60 -75h-2v91h-165v-519z" />
    <glyph glyph-name="s" unicode="s" horiz-adv-x="556" 
d="M27 171q2 -52 23.5 -88.5t57.5 -58t79.5 -30.5t93.5 -9q47 0 91 10t79.5 31.5t57 57.5t21.5 86q0 18 -6.5 39t-21.5 41t-41 36.5t-63 23.5q-16 4 -48 9q-31 6 -56 11.5t-44.5 12.5t-31.5 17.5t-12 24.5q0 24 21.5 31.5t51.5 7.5q34 0 54 -13q22 -14 22 -45h157
q-2 49 -22.5 82t-54.5 51.5t-75 26.5t-87 8q-41 0 -82.5 -8t-76.5 -26t-56.5 -49.5t-21.5 -75.5q0 -42 15.5 -70t41.5 -44.5t56 -25.5t78 -19q36 -7 50 -11l8 -2q34 -7 54.5 -18t20.5 -35q0 -28 -25 -41.5t-55 -13.5q-39 0 -63 18q-28 21 -28 58h-162z" />
    <glyph glyph-name="t" unicode="t" horiz-adv-x="389" 
d="M370 519h-105v157h-170v-157h-86v-110h86v-231q0 -55 8.5 -89.5t28.5 -55t55 -29.5t90 -9q18 0 53 3q27 2 40 2v125q-8 0 -23 -1q-14 -1 -21 -1q-31 0 -46 10.5t-15 39.5v236h105v110z" />
    <glyph glyph-name="u" unicode="u" 
d="M573 519h-170v-278q0 -32 -8.5 -55t-23 -36.5t-30.5 -19t-31 -5.5q-42 0 -63 21.5t-21 71.5v301h-170v-312q0 -109 43 -165.5t149 -56.5q46 0 90.5 23.5t67.5 62.5h2v-71h165v519z" />
    <glyph glyph-name="v" unicode="v" horiz-adv-x="537" 
d="M540 519h-173l-96 -343h-2l-95 343h-177l173 -519h196z" />
    <glyph glyph-name="w" unicode="w" horiz-adv-x="833" 
d="M833 519h-173l-85 -335h-2l-76 335h-162l-74 -336h-2l-87 336h-172l162 -519h172l81 345h2l82 -345h172z" />
    <glyph glyph-name="x" unicode="x" horiz-adv-x="537" 
d="M-7 0h188l85 150l90 -150h188l-184 275l162 244h-180l-73 -124l-73 124h-188l165 -247z" />
    <glyph glyph-name="y" unicode="y" horiz-adv-x="537" 
d="M545 519h-174l-98 -338h-2l-98 338h-180l134 -361l8 -22q15 -40 25 -69.5t10 -44.5q0 -27 -19 -42.5t-49 -15.5h-59v-138h80q48 0 80 4.5t57.5 17.5t45 38t34.5 68z" />
    <glyph glyph-name="z" unicode="z" horiz-adv-x="537" 
d="M22 0h494v130h-278l259 260v129h-454v-130h238l-259 -257v-132z" />
    <glyph glyph-name="braceleft" unicode="{" horiz-adv-x="370" 
d="M356 729h-118q-61 0 -98 -33.5t-37 -109.5v-188q0 -19 -9.5 -31.5t-24 -19t-29 -8.5t-26.5 -2v-120q12 0 26.5 -2.5t29 -9.5t24 -21.5t9.5 -36.5v-173q0 -75 37.5 -111.5t97.5 -36.5h118v120h-41q-33 0 -43 18.5t-10 46.5v165q0 33 -11.5 54t-28.5 31.5t-34.5 14
t-40.5 5.5v3q19 1 38 5.5t36.5 15t29 29.5t11.5 46v164q0 28 10 46.5t43 18.5h41v120z" />
    <glyph glyph-name="bar" unicode="|" horiz-adv-x="222" 
d="M39 -214h144v1000h-144v-1000z" />
    <glyph glyph-name="braceright" unicode="}" horiz-adv-x="370" 
d="M14 -174h118q60 0 97.5 36.5t37.5 111.5v173q0 22 10 36.5t24 21.5t28.5 9.5t26.5 2.5v120q-12 0 -26 2t-29 8.5t-24.5 19t-9.5 31.5v188q0 76 -37 109.5t-98 33.5h-118v-120h41q33 0 43 -18.5t10 -46.5v-164q0 -27 11.5 -45.5t29.5 -29.5t36.5 -15.5t37.5 -5.5v-3
q-22 -1 -39.5 -5t-35 -14.5t-29 -31.5t-11.5 -54v-165q0 -28 -10 -46.5t-43 -18.5h-41v-120z" />
    <glyph glyph-name="asciitilde" unicode="~" horiz-adv-x="600" 
d="M495 363q-23 -35 -42 -53.5t-46 -18.5q-15 0 -33.5 7t-47.5 20q-10 4 -21 9q-34 15 -61 23.5t-50 8.5q-46 0 -75.5 -24t-49.5 -62l36 -130q15 32 34.5 52t49.5 20q31 0 58.5 -9.5t56.5 -25.5t53 -24.5t49 -8.5q41 0 68 22t57 64z" />
    <glyph glyph-name="exclamdown" unicode="&#xa1;" horiz-adv-x="296" 
d="M61 -167h175v177l-46 301h-83l-46 -301v-177zM241 547h-186v-186h186v186z" />
    <glyph glyph-name="cent" unicode="&#xa2;" 
d="M299 118q-40 9 -60 46.5t-20 86.5q0 27 3 50.5t11.5 44t24.5 35t41 20.5v-283zM299 -105h46v92q97 6 161.5 63.5t75.5 153.5h-165q-11 -74 -72 -86v283q28 -4 47 -24t20 -48h165q-9 92 -73.5 145t-158.5 59v79h-46v-79q-115 -7 -182.5 -85t-67.5 -197q0 -56 18 -103
t52 -82t79.5 -55.5t100.5 -23.5v-92z" />
    <glyph glyph-name="sterling" unicode="&#xa3;" 
d="M119 -15q28 18 54 28.5t52 10.5q38 0 112 -20q69 -19 101 -19q52 0 93 15t81 56l-69 123q-21 -24 -40 -34.5t-49 -10.5q-20 0 -62 10q-39 9 -56 9q-21 0 -40.5 -4.5t-34.5 -14.5l-2 2q36 27 52.5 58t16.5 64q0 22 -7 42h89v105h-119q-14 18 -27 49.5t-13 51.5
q0 38 24 58.5t63 20.5q41 0 61 -28.5t20 -75.5h165q0 122 -70 185t-189 63q-49 0 -95.5 -12.5t-83.5 -39t-59 -66.5t-22 -93q0 -29 12 -58.5t31 -54.5h-67v-105h106q13 -27 13 -65q0 -42 -32.5 -81t-76.5 -67z" />
    <glyph glyph-name="currency" unicode="&#xa4;" 
d="M118 88l45 45q69 -48 152 -48q43 0 83 13.5t72 37.5l44 -44l60 60l-44 44q50 69 50 154t-50 154l44 44l-60 60l-43 -44q-68 51 -156 51q-87 0 -156 -51l-45 44l-60 -60l45 -44q-49 -71 -49 -154q0 -88 52 -157l-44 -45zM194 350q0 60 35 97.5t86 37.5t86 -37.5t35 -97.5
t-35 -97.5t-86 -37.5t-86 37.5t-35 97.5z" />
    <glyph glyph-name="yen" unicode="&#xa5;" 
d="M630 714h-186l-128 -301h-2l-128 301h-186l150 -301h-104v-105h156l20 -41v-31h-176v-105h176v-131h186v131h176v105h-176v31l20 41h156v105h-103z" />
    <glyph glyph-name="brokenbar" unicode="&#xa6;" horiz-adv-x="222" 
d="M39 -89h144v250h-144v-250zM183 661h-144v-250h144v250z" />
    <glyph glyph-name="section" unicode="&#xa7;" 
d="M220 275q-21 13 -31 24t-10 30q1 20 12.5 33t28.5 13q14 0 29 -8l151 -70q52 -28 52 -62q0 -9 -5 -19q-3 -10 -15.5 -19t-24.5 -12zM544 534q-2 95 -64 145t-159 50q-39 0 -77.5 -11t-70.5 -33t-51.5 -55t-19.5 -75q0 -30 9 -53.5t29 -46.5q-50 -19 -77.5 -58t-27.5 -94
q0 -39 18.5 -69t48.5 -53t62 -38.5t85 -38.5q69 -29 101.5 -49.5t32.5 -49.5q0 -28 -19.5 -45t-50.5 -17q-37 0 -60 20q-25 23 -25 59h-147q0 -53 18 -92t49.5 -64t74 -36.5t93.5 -11.5q45 0 85.5 11.5t72.5 35t50.5 59t18.5 82.5q0 68 -50 110q48 14 75.5 55.5t27.5 94.5
q0 48 -24 78.5t-71 57.5l-166 81l-6 3q-31 15 -49 29t-18 37q0 24 18 38t43 14q34 0 53 -18q21 -19 21 -52h147z" />
    <glyph glyph-name="dieresis" unicode="&#xa8;" horiz-adv-x="296" 
d="M330 589v125h-150v-125h150zM-33 589h150v125h-150v-125z" />
    <glyph glyph-name="copyright" unicode="&#xa9;" horiz-adv-x="800" 
d="M400 -15q75 0 144.5 25t124 73.5t86 118.5t31.5 155q0 86 -31.5 155.5t-86 118t-124 73.5t-144.5 25t-144.5 -25t-124 -73.5t-86 -118t-31.5 -155.5t31.5 -155.5t86 -118t124 -73.5t144.5 -25zM400 80q-53 0 -101 20t-84 57.5t-56 88.5t-20 111t20 111t56 88.5t84 57.5
t101 20q52 0 100 -20t84 -57.5t56.5 -89t20.5 -110.5t-20.5 -110.5t-57 -89t-84 -57.5t-99.5 -20zM499 303q-2 -32 -24.5 -47t-59.5 -15q-40 0 -65.5 34.5t-25.5 86.5q0 55 23.5 86.5t65.5 31.5q33 0 56.5 -14t29.5 -44h90q-11 73 -59 113t-117 40q-94 0 -150 -60.5
t-56 -154.5q0 -45 14.5 -84t42.5 -68t66.5 -45.5t84.5 -16.5q68 0 118 41.5t60 115.5h-94z" />
    <glyph glyph-name="ordfeminine" unicode="&#xaa;" horiz-adv-x="377" 
d="M239 501q0 -68 -67 -68q-20 0 -33.5 8t-13.5 22q0 17 12.5 26.5t33.5 13.5q7 1 13 3q36 7 55 14v-19zM132 592q8 34 55 34q19 0 36 -7t17 -20q0 -23 -29 -29q-17 -3 -54 -8q-61 -7 -87 -16q-33 -12 -51.5 -35t-18.5 -64q0 -47 34.5 -70.5t95.5 -23.5q30 0 55 9
q23 8 56 29q2 -15 7 -29h129q-9 25 -11 45t-2 47v139q0 35 -13 57.5t-37 34.5t-54.5 16.5t-71.5 4.5q-80 0 -122 -21q-24 -13 -37.5 -35t-14.5 -58h118z" />
    <glyph glyph-name="guillemotleft" unicode="&#xab;" horiz-adv-x="444" 
d="M45 194l159 -127v137l-86 66l86 67v137l-159 -128v-152zM240 194l159 -127v137l-86 66l86 67v137l-159 -128v-152z" />
    <glyph glyph-name="logicalnot" unicode="&#xac;" horiz-adv-x="600" 
d="M408 120h144v329h-504v-144h360v-185z" />
    <glyph glyph-name="minus" unicode="&#xad;" horiz-adv-x="600" 
d="M552 181v144h-504v-144h504z" />
    <glyph glyph-name="minus" unicode="&#x2212;" horiz-adv-x="600" 
d="M552 181v144h-504v-144h504z" />
    <glyph glyph-name="registered" unicode="&#xae;" horiz-adv-x="800" 
d="M346 324h25l92 -168h95l-103 174q56 2 85.5 27t29.5 79q0 69 -43 96t-128 27h-151v-403h98v168zM346 395v93h51q32 0 53.5 -8t21.5 -34q0 -30 -13.5 -40.5t-41.5 -10.5h-71zM400 -15q75 0 144.5 25t124 73.5t86 118.5t31.5 155q0 86 -31.5 155.5t-86 118t-124 73.5
t-144.5 25t-144.5 -25t-124 -73.5t-86 -118t-31.5 -155.5t31.5 -155.5t86 -118t124 -73.5t144.5 -25zM400 80q-53 0 -101 20t-84 57.5t-56 88.5t-20 111t20 111t56 88.5t84 57.5t101 20q52 0 100 -20t84 -57.5t56.5 -89t20.5 -110.5t-20.5 -110.5t-57 -89t-84 -57.5
t-99.5 -20z" />
    <glyph glyph-name="macron" unicode="&#xaf;" horiz-adv-x="296" 
d="M311 604v86h-325v-86h325z" />
    <glyph glyph-name="degree" unicode="&#xb0;" horiz-adv-x="400" 
d="M40 546q0 -32 12.5 -61.5t34.5 -51.5t51.5 -34.5t61.5 -12.5t61.5 12.5t51.5 34.5t34.5 51.5t12.5 61.5t-12.5 61.5t-34.5 51.5t-51.5 34.5t-61.5 12.5t-61.5 -12.5t-51.5 -34.5t-34.5 -51.5t-12.5 -61.5zM200 457q-36 0 -58 25.5t-22 63.5t22 63.5t58 25.5t58 -25.5
t22 -63.5t-22 -63.5t-58 -25.5z" />
    <glyph glyph-name="plusminus" unicode="&#xb1;" horiz-adv-x="600" 
d="M228 417h-180v-144h180v-101h144v101h180v144h-180v101h-144v-101zM48 -12h504v144h-504v-144z" />
    <glyph glyph-name="twosuperior" unicode="&#xb2;" horiz-adv-x="378" 
d="M371 278v95h-194q9 15 25 25.5t54 29.5q62 31 92.5 61t30.5 79q0 68 -50.5 103t-131.5 35q-95 0 -144 -49q-48 -46 -48 -130h125q1 38 16.5 61t51.5 23q25 0 40.5 -14t15.5 -38q0 -14 -15.5 -29.5t-43.5 -32.5l-22 -12q-64 -36 -96 -61q-34 -27 -52.5 -64t-18.5 -82h365z
" />
    <glyph glyph-name="threesuperior" unicode="&#xb3;" horiz-adv-x="378" 
d="M167 455q7 0 15 1h14q32 0 53 -11.5t21 -39.5q0 -18 -21 -29.5t-46 -11.5q-34 0 -54 18q-19 18 -19 52h-125v-23q4 -72 57.5 -107t141.5 -35q38 0 72.5 8t61 24.5t42 42.5t15.5 61q0 85 -77 95v2q34 5 51.5 27t17.5 53q0 34 -15 58t-40.5 38.5t-58.5 21t-69 6.5
q-85 0 -134.5 -38t-51.5 -113h125q0 26 17.5 41t44.5 15q22 0 39.5 -10.5t17.5 -27.5q0 -19 -21 -28t-45 -9q-2 0 -14 1h-15v-82z" />
    <glyph glyph-name="acute" unicode="&#xb4;" horiz-adv-x="296" 
d="M142 724l-97 -149h120l157 149h-180z" />
    <glyph glyph-name="mu" unicode="&#xb5;" 
d="M573 519h-170v-278q0 -32 -8.5 -55t-23 -36.5t-30.5 -19t-31 -5.5q-42 0 -63 21.5t-21 71.5v301h-170v-693h170v165q9 -6 22 -6q46 0 90.5 23.5t67.5 62.5h2v-71h165v519z" />
    <glyph glyph-name="paragraph" unicode="&#xb6;" horiz-adv-x="620" 
d="M206 -169h120v793h97v-793h120v883h-314q-55 0 -99.5 -8t-77 -28t-51 -55t-18.5 -87q0 -81 57.5 -126t165.5 -45v-534z" />
    <glyph glyph-name="periodcentered" unicode="&#xb7;" horiz-adv-x="315" 
d="M65 286q0 -38 27.5 -65.5t65.5 -27.5t65.5 27.5t27.5 65.5t-27.5 65.5t-65.5 27.5t-65.5 -27.5t-27.5 -65.5z" />
    <glyph glyph-name="periodcentered" unicode="&#x2219;" horiz-adv-x="315" 
d="M65 286q0 -38 27.5 -65.5t65.5 -27.5t65.5 27.5t27.5 65.5t-27.5 65.5t-65.5 27.5t-65.5 -27.5t-27.5 -65.5z" />
    <glyph glyph-name="cedilla" unicode="&#xb8;" horiz-adv-x="296" 
d="M133 0l-57 -92l22 -19q23 7 40 7q43 0 43 -38q0 -35 -51 -35q-37 4 -82 19l-19 -45q30 -13 59.5 -22t58.5 -9q58 0 93 23t35 74q0 41 -25.5 60.5t-59.5 19.5q-24 0 -40 -5l-2 2l40 60h-55z" />
    <glyph glyph-name="onesuperior" unicode="&#xb9;" horiz-adv-x="378" 
d="M163 523v-245h125v419h-100q-3 -44 -40.5 -64t-93.5 -20v-90h109z" />
    <glyph glyph-name="ordmasculine" unicode="&#xba;" horiz-adv-x="387" 
d="M193 448q-36 0 -53 25t-17 56q0 32 17 57t53 25q37 0 54 -25t17 -57q0 -31 -17 -56t-54 -25zM193 353q91 0 143.5 48t52.5 128t-52.5 128.5t-143.5 48.5q-90 0 -142.5 -48.5t-52.5 -128.5t52.5 -128t142.5 -48z" />
    <glyph glyph-name="guillemotright" unicode="&#xbb;" horiz-adv-x="444" 
d="M399 347l-159 127v-137l86 -66l-86 -67v-137l159 128v152zM204 347l-159 127v-137l86 -66l-86 -67v-137l159 128v152z" />
    <glyph glyph-name="onequarter" unicode="&#xbc;" horiz-adv-x="945" 
d="M298 -27l411 751h-99l-411 -751h99zM135 523v-245h125v419h-100q-3 -44 -40.5 -64t-93.5 -20v-90h109zM855 179v240h-122l-203 -231v-99h199v-89h126v89h64v90h-64zM624 179l106 123v-123h-106z" />
    <glyph glyph-name="onehalf" unicode="&#xbd;" horiz-adv-x="945" 
d="M273 -27l411 751h-99l-411 -751h99zM124 523v-245h125v419h-100q-3 -44 -40.5 -64t-93.5 -20v-90h109zM922 0v95h-194q9 15 25 25.5t54 29.5q62 31 92.5 61t30.5 79q0 68 -50.5 103t-131.5 35q-95 0 -144 -49q-48 -46 -48 -130h125q1 38 16.5 61t51.5 23q25 0 40.5 -14
t15.5 -38q0 -14 -15.5 -29.5t-43.5 -32.5l-22 -12q-64 -36 -96 -61q-34 -27 -52.5 -64t-18.5 -82h365z" />
    <glyph glyph-name="threequarters" unicode="&#xbe;" horiz-adv-x="945" 
d="M177 453q7 0 15 1h14q32 0 53 -11.5t21 -37.5q0 -18 -21 -29.5t-46 -11.5q-34 0 -54 18q-19 18 -19 52h-125v-23q4 -72 57.5 -107t141.5 -35q38 0 72.5 8t61 24.5t42 42.5t15.5 61q0 85 -77 95v2q34 5 51.5 27t17.5 53q0 34 -15 58t-40.5 38.5t-58.5 21t-69 6.5
q-85 0 -134.5 -38t-51.5 -113h125q0 26 17.5 41t44.5 15q22 0 39.5 -10.5t17.5 -27.5q0 -21 -20.5 -30t-45.5 -9q-2 0 -14 1h-15v-82zM352 -27l411 751h-99l-411 -751h99zM866 179v240h-122l-203 -231v-99h199v-89h126v89h64v90h-64zM635 179l106 123v-123h-106z" />
    <glyph glyph-name="questiondown" unicode="&#xbf;" horiz-adv-x="574" 
d="M368 67v-19q-2 -41 -24 -63.5t-62 -22.5q-28 0 -46.5 16.5t-18.5 44.5q0 30 16.5 49t52.5 42q3 3 11 8q38 28 59.5 57.5t21.5 81.5v50h-158q-1 -44 -13.5 -63.5t-52.5 -45.5q-67 -42 -95 -77.5t-28 -102.5q0 -50 21 -89t56.5 -64.5t80 -38t92.5 -12.5q119 0 190 66
t72 183h-175zM392 547h-186v-186h186v186z" />
    <glyph glyph-name="Agrave" unicode="&#xc0;" horiz-adv-x="704" 
d="M349 907h-180l157 -149h120zM351 516h2l79 -250h-162zM-9 0h191l45 128h249l44 -128h194l-267 714h-189z" />
    <glyph glyph-name="Aacute" unicode="&#xc1;" horiz-adv-x="704" 
d="M346 907l-97 -149h120l157 149h-180zM351 516h2l79 -250h-162zM-9 0h191l45 128h249l44 -128h194l-267 714h-189z" />
    <glyph glyph-name="Acircumflex" unicode="&#xc2;" horiz-adv-x="704" 
d="M352 838l60 -80h128l-112 149h-152l-112 -149h128zM351 516h2l79 -250h-162zM-9 0h191l45 128h249l44 -128h194l-267 714h-189z" />
    <glyph glyph-name="Atilde" unicode="&#xc3;" horiz-adv-x="704" 
d="M471 897q-2 -16 -14 -28.5t-28 -12.5q-11 0 -27 5.5t-38 15.5q-25 10 -43.5 15t-36.5 5q-50 0 -82 -41t-39 -95h71q3 18 15.5 31.5t28.5 13.5q17 0 55 -15l9 -3q48 -18 81 -18q53 0 82.5 35.5t36.5 91.5h-71zM351 516h2l79 -250h-162zM-9 0h191l45 128h249l44 -128h194
l-267 714h-189z" />
    <glyph glyph-name="Adieresis" unicode="&#xc4;" horiz-adv-x="704" 
d="M534 772v125h-150v-125h150zM171 772h150v125h-150v-125zM351 516h2l79 -250h-162zM-9 0h191l45 128h249l44 -128h194l-267 714h-189z" />
    <glyph glyph-name="Aring" unicode="&#xc5;" horiz-adv-x="704" 
d="M352 737q44 0 75.5 31.5t31.5 75.5q0 45 -31.5 76t-75.5 31t-75.5 -31.5t-31.5 -75.5q0 -43 31.5 -75t75.5 -32zM352 792q-22 0 -37 15.5t-15 36.5q0 22 15 37t37 15t37 -15t15 -37q0 -21 -15 -36.5t-37 -15.5zM351 516h2l79 -250h-162zM-9 0h191l45 128h249l44 -128h194
l-267 714h-189z" />
    <glyph glyph-name="AE" unicode="&#xc6;" horiz-adv-x="1019" 
d="M428 565h32v-299h-162zM-14 0h198l58 128h218v-128h517v160h-337v136h306v144h-306v125h328v149h-648z" />
    <glyph glyph-name="Ccedilla" unicode="&#xc7;" horiz-adv-x="759" 
d="M538 277q-5 -62 -42 -97t-102 -35q-43 0 -75 17.5t-52 47.5t-29.5 68t-9.5 79t9.5 79t29.5 68t52 47.5t75 17.5q60 0 98.5 -28.5t45.5 -81.5h186q-2 62 -30.5 112.5t-75.5 86t-104 53.5t-116 18q-79 0 -145 -28.5t-113.5 -79.5t-72.5 -119t-25 -145q0 -72 22 -136
t63.5 -114t99.5 -81.5t129 -38.5l-49 -79l22 -19q23 7 40 7q43 0 43 -38q0 -35 -51 -35q-37 4 -82 19l-19 -45q30 -13 59.5 -22t58.5 -9q58 0 93 23t35 74q0 41 -25.5 60.5t-59.5 19.5q-24 0 -40 -5l-2 2l31 46q65 1 121 21.5t98 58.5t66.5 91.5t28.5 119.5h-186z" />
    <glyph glyph-name="Egrave" unicode="&#xc8;" horiz-adv-x="685" 
d="M340 907h-180l157 -149h120zM64 0h579v160h-393v136h350v144h-350v125h383v149h-569v-714z" />
    <glyph glyph-name="Eacute" unicode="&#xc9;" horiz-adv-x="685" 
d="M337 907l-97 -149h120l157 149h-180zM64 0h579v160h-393v136h350v144h-350v125h383v149h-569v-714z" />
    <glyph glyph-name="Ecircumflex" unicode="&#xca;" horiz-adv-x="685" 
d="M343 838l60 -80h128l-112 149h-152l-112 -149h128zM64 0h579v160h-393v136h350v144h-350v125h383v149h-569v-714z" />
    <glyph glyph-name="Edieresis" unicode="&#xcb;" horiz-adv-x="685" 
d="M525 772v125h-150v-125h150zM162 772h150v125h-150v-125zM64 0h579v160h-393v136h350v144h-350v125h383v149h-569v-714z" />
    <glyph glyph-name="Igrave" unicode="&#xcc;" horiz-adv-x="315" 
d="M155 907h-180l157 -149h120zM64 0h186v714h-186v-714z" />
    <glyph glyph-name="Iacute" unicode="&#xcd;" horiz-adv-x="315" 
d="M152 907l-97 -149h120l157 149h-180zM64 0h186v714h-186v-714z" />
    <glyph glyph-name="Icircumflex" unicode="&#xce;" horiz-adv-x="315" 
d="M158 838l60 -80h128l-112 149h-152l-112 -149h128zM64 0h186v714h-186v-714z" />
    <glyph glyph-name="Idieresis" unicode="&#xcf;" horiz-adv-x="315" 
d="M340 772v125h-150v-125h150zM-23 772h150v125h-150v-125zM64 0h186v714h-186v-714z" />
    <glyph glyph-name="Eth" unicode="&#xd0;" horiz-adv-x="759" 
d="M250 554h88q96 0 146.5 -48.5t50.5 -144.5q0 -107 -45.5 -153t-151.5 -48h-88v136h158v144h-158v114zM64 0h307q165 0 257.5 93t92.5 267q0 166 -93 260t-257 94h-307v-274h-72v-144h72v-296z" />
    <glyph glyph-name="Ntilde" unicode="&#xd1;" horiz-adv-x="741" 
d="M490 897q-2 -16 -14 -28.5t-28 -12.5q-11 0 -27 5.5t-38 15.5q-25 10 -43.5 15t-36.5 5q-50 0 -82 -41t-39 -95h71q3 18 15.5 31.5t28.5 13.5q17 0 55 -15l9 -3q48 -18 81 -18q53 0 82.5 35.5t36.5 91.5h-71zM62 0h175v445h2l248 -445h191v714h-175v-440h-2l-248 440
h-191v-714z" />
    <glyph glyph-name="Ograve" unicode="&#xd2;" horiz-adv-x="778" 
d="M386 907h-180l157 -149h120zM37 357q0 -78 23.5 -145.5t69 -118.5t111.5 -79.5t148 -28.5t148 28.5t111.5 79.5t69 118.5t23.5 145.5t-23.5 145.5t-69 118.5t-111.5 79.5t-148 28.5t-148 -28.5t-111.5 -79.5t-69 -118.5t-23.5 -145.5zM223 357q0 41 9.5 79t29.5 68
t52 47.5t75 17.5t75 -17.5t52 -47.5t29.5 -68t9.5 -79t-9.5 -79t-29.5 -68t-52 -47.5t-75 -17.5t-75 17.5t-52 47.5t-29.5 68t-9.5 79z" />
    <glyph glyph-name="Oacute" unicode="&#xd3;" horiz-adv-x="778" 
d="M383 907l-97 -149h120l157 149h-180zM37 357q0 -78 23.5 -145.5t69 -118.5t111.5 -79.5t148 -28.5t148 28.5t111.5 79.5t69 118.5t23.5 145.5t-23.5 145.5t-69 118.5t-111.5 79.5t-148 28.5t-148 -28.5t-111.5 -79.5t-69 -118.5t-23.5 -145.5zM223 357q0 41 9.5 79
t29.5 68t52 47.5t75 17.5t75 -17.5t52 -47.5t29.5 -68t9.5 -79t-9.5 -79t-29.5 -68t-52 -47.5t-75 -17.5t-75 17.5t-52 47.5t-29.5 68t-9.5 79z" />
    <glyph glyph-name="Ocircumflex" unicode="&#xd4;" horiz-adv-x="778" 
d="M389 838l60 -80h128l-112 149h-152l-112 -149h128zM37 357q0 -78 23.5 -145.5t69 -118.5t111.5 -79.5t148 -28.5t148 28.5t111.5 79.5t69 118.5t23.5 145.5t-23.5 145.5t-69 118.5t-111.5 79.5t-148 28.5t-148 -28.5t-111.5 -79.5t-69 -118.5t-23.5 -145.5zM223 357
q0 41 9.5 79t29.5 68t52 47.5t75 17.5t75 -17.5t52 -47.5t29.5 -68t9.5 -79t-9.5 -79t-29.5 -68t-52 -47.5t-75 -17.5t-75 17.5t-52 47.5t-29.5 68t-9.5 79z" />
    <glyph glyph-name="Otilde" unicode="&#xd5;" horiz-adv-x="778" 
d="M508 897q-2 -16 -14 -28.5t-28 -12.5q-11 0 -27 5.5t-38 15.5q-25 10 -43.5 15t-36.5 5q-50 0 -82 -41t-39 -95h71q3 18 15.5 31.5t28.5 13.5q17 0 55 -15l9 -3q48 -18 81 -18q53 0 82.5 35.5t36.5 91.5h-71zM37 357q0 -78 23.5 -145.5t69 -118.5t111.5 -79.5t148 -28.5
t148 28.5t111.5 79.5t69 118.5t23.5 145.5t-23.5 145.5t-69 118.5t-111.5 79.5t-148 28.5t-148 -28.5t-111.5 -79.5t-69 -118.5t-23.5 -145.5zM223 357q0 41 9.5 79t29.5 68t52 47.5t75 17.5t75 -17.5t52 -47.5t29.5 -68t9.5 -79t-9.5 -79t-29.5 -68t-52 -47.5t-75 -17.5
t-75 17.5t-52 47.5t-29.5 68t-9.5 79z" />
    <glyph glyph-name="Odieresis" unicode="&#xd6;" horiz-adv-x="778" 
d="M571 772v125h-150v-125h150zM208 772h150v125h-150v-125zM37 357q0 -78 23.5 -145.5t69 -118.5t111.5 -79.5t148 -28.5t148 28.5t111.5 79.5t69 118.5t23.5 145.5t-23.5 145.5t-69 118.5t-111.5 79.5t-148 28.5t-148 -28.5t-111.5 -79.5t-69 -118.5t-23.5 -145.5z
M223 357q0 41 9.5 79t29.5 68t52 47.5t75 17.5t75 -17.5t52 -47.5t29.5 -68t9.5 -79t-9.5 -79t-29.5 -68t-52 -47.5t-75 -17.5t-75 17.5t-52 47.5t-29.5 68t-9.5 79z" />
    <glyph glyph-name="multiply" unicode="&#xd7;" horiz-adv-x="600" 
d="M198 253l-144 -144l102 -102l144 144l144 -144l102 102l-144 144l144 144l-102 102l-144 -144l-144 144l-102 -102z" />
    <glyph glyph-name="Oslash" unicode="&#xd8;" horiz-adv-x="778" 
d="M241 251q-18 48 -18 106q0 41 9.5 79t29.5 68t52 47.5t75 17.5q66 0 106 -40zM537 462q18 -46 18 -105q0 -41 -9.5 -79t-29.5 -68t-52 -47.5t-75 -17.5q-63 0 -105 40zM693 747l-82 -90q-91 72 -222 72q-82 0 -148 -28.5t-111.5 -79.5t-69 -118.5t-23.5 -145.5
q0 -71 20 -134.5t57 -111.5l-92 -101l57 -50l89 97q89 -72 221 -72q82 0 148 28.5t111.5 79.5t69 118.5t23.5 145.5q0 71 -19.5 134t-57.5 111l87 95z" />
    <glyph glyph-name="Ugrave" unicode="&#xd9;" horiz-adv-x="741" 
d="M368 907h-180l157 -149h120zM681 714h-186v-430q0 -71 -29 -105t-96 -34t-96 34t-29 105v430h-186v-419q0 -157 75.5 -233.5t235.5 -76.5t235.5 76.5t75.5 233.5v419z" />
    <glyph glyph-name="Uacute" unicode="&#xda;" horiz-adv-x="741" 
d="M365 907l-97 -149h120l157 149h-180zM681 714h-186v-430q0 -71 -29 -105t-96 -34t-96 34t-29 105v430h-186v-419q0 -157 75.5 -233.5t235.5 -76.5t235.5 76.5t75.5 233.5v419z" />
    <glyph glyph-name="Ucircumflex" unicode="&#xdb;" horiz-adv-x="741" 
d="M371 838l60 -80h128l-112 149h-152l-112 -149h128zM681 714h-186v-430q0 -71 -29 -105t-96 -34t-96 34t-29 105v430h-186v-419q0 -157 75.5 -233.5t235.5 -76.5t235.5 76.5t75.5 233.5v419z" />
    <glyph glyph-name="Udieresis" unicode="&#xdc;" horiz-adv-x="741" 
d="M553 772v125h-150v-125h150zM190 772h150v125h-150v-125zM681 714h-186v-430q0 -71 -29 -105t-96 -34t-96 34t-29 105v430h-186v-419q0 -157 75.5 -233.5t235.5 -76.5t235.5 76.5t75.5 233.5v419z" />
    <glyph glyph-name="Yacute" unicode="&#xdd;" horiz-adv-x="667" 
d="M328 907l-97 -149h120l157 149h-180zM687 714h-211l-142 -290l-142 290h-211l260 -448v-266h186v266z" />
    <glyph glyph-name="Thorn" unicode="&#xde;" horiz-adv-x="685" 
d="M64 714v-714h186v146h153q123 0 190.5 59t67.5 187q0 61 -21 105.5t-56.5 72t-82 40t-98.5 12.5h-153v92h-186zM250 473h125q45 0 72.5 -23t27.5 -71q0 -47 -27 -68t-73 -21h-125v183z" />
    <glyph glyph-name="germandbls" unicode="&#xdf;" 
d="M57 0h170v471q0 34 2.5 55.5t11 38t26.5 25.5t47 9q36 0 57.5 -21t21.5 -58q0 -42 -27.5 -61.5t-69.5 -19.5q-3 0 -8 1h-9v-101q2 0 11 1h10q55 0 88.5 -25t33.5 -81q0 -48 -27 -78.5t-75 -30.5q-15 0 -43 4v-129q14 -1 21 -2q42 -3 63 -3q103 0 167 61.5t64 163.5
q0 63 -34 113t-93 62v2q40 15 63.5 53.5t23.5 83.5q0 49 -20.5 86.5t-55.5 61.5t-78.5 35.5t-89.5 11.5q-64 0 -112 -17.5t-78.5 -49t-45.5 -72.5t-15 -88v-502z" />
    <glyph glyph-name="agrave" unicode="&#xe0;" horiz-adv-x="593" 
d="M294 724h-180l157 -149h120zM199 149q0 28 19 43t51 23q12 3 40 9q23 4 38.5 8t26.5 11q0 -84 -23.5 -118.5t-80.5 -34.5q-31 0 -51 14.5t-20 44.5zM209 359q12 65 85 65q31 0 56.5 -13.5t25.5 -40.5q0 -23 -10.5 -33t-34.5 -15q-21 -4 -69 -11q-55 -7 -91.5 -15t-69 -25
t-52.5 -48.5t-20 -80.5q0 -77 49.5 -117t127.5 -40q49 0 94.5 15.5t76.5 48.5q4 -32 10 -49h171q-13 27 -16.5 57.5t-3.5 75.5v227q0 53 -19.5 87.5t-53.5 53.5t-76 26t-93 7q-48 0 -90 -8.5t-75 -27.5q-36 -21 -57.5 -55.5t-23.5 -83.5h159z" />
    <glyph glyph-name="aacute" unicode="&#xe1;" horiz-adv-x="593" 
d="M291 724l-97 -149h120l157 149h-180zM199 149q0 28 19 43t51 23q12 3 40 9q23 4 38.5 8t26.5 11q0 -84 -23.5 -118.5t-80.5 -34.5q-31 0 -51 14.5t-20 44.5zM209 359q12 65 85 65q31 0 56.5 -13.5t25.5 -40.5q0 -23 -10.5 -33t-34.5 -15q-21 -4 -69 -11q-55 -7 -91.5 -15
t-69 -25t-52.5 -48.5t-20 -80.5q0 -77 49.5 -117t127.5 -40q49 0 94.5 15.5t76.5 48.5q4 -32 10 -49h171q-13 27 -16.5 57.5t-3.5 75.5v227q0 53 -19.5 87.5t-53.5 53.5t-76 26t-93 7q-48 0 -90 -8.5t-75 -27.5q-36 -21 -57.5 -55.5t-23.5 -83.5h159z" />
    <glyph glyph-name="acircumflex" unicode="&#xe2;" horiz-adv-x="593" 
d="M297 655l60 -80h128l-112 149h-152l-112 -149h128zM199 149q0 28 19 43t51 23q12 3 40 9q23 4 38.5 8t26.5 11q0 -84 -23.5 -118.5t-80.5 -34.5q-31 0 -51 14.5t-20 44.5zM209 359q12 65 85 65q31 0 56.5 -13.5t25.5 -40.5q0 -23 -10.5 -33t-34.5 -15q-21 -4 -69 -11
q-55 -7 -91.5 -15t-69 -25t-52.5 -48.5t-20 -80.5q0 -77 49.5 -117t127.5 -40q49 0 94.5 15.5t76.5 48.5q4 -32 10 -49h171q-13 27 -16.5 57.5t-3.5 75.5v227q0 53 -19.5 87.5t-53.5 53.5t-76 26t-93 7q-48 0 -90 -8.5t-75 -27.5q-36 -21 -57.5 -55.5t-23.5 -83.5h159z" />
    <glyph glyph-name="atilde" unicode="&#xe3;" horiz-adv-x="593" 
d="M416 714q-2 -16 -14 -28.5t-28 -12.5q-11 0 -27 5.5t-38 15.5q-25 10 -43.5 15t-36.5 5q-50 0 -82 -41t-39 -95h71q3 18 15.5 31.5t28.5 13.5q17 0 55 -15l9 -3q48 -18 81 -18q53 0 82.5 35.5t36.5 91.5h-71zM199 149q0 28 19 43t51 23q12 3 40 9q23 4 38.5 8t26.5 11
q0 -84 -23.5 -118.5t-80.5 -34.5q-31 0 -51 14.5t-20 44.5zM209 359q12 65 85 65q31 0 56.5 -13.5t25.5 -40.5q0 -23 -10.5 -33t-34.5 -15q-21 -4 -69 -11q-55 -7 -91.5 -15t-69 -25t-52.5 -48.5t-20 -80.5q0 -77 49.5 -117t127.5 -40q49 0 94.5 15.5t76.5 48.5
q4 -32 10 -49h171q-13 27 -16.5 57.5t-3.5 75.5v227q0 53 -19.5 87.5t-53.5 53.5t-76 26t-93 7q-48 0 -90 -8.5t-75 -27.5q-36 -21 -57.5 -55.5t-23.5 -83.5h159z" />
    <glyph glyph-name="adieresis" unicode="&#xe4;" horiz-adv-x="593" 
d="M479 589v125h-150v-125h150zM116 589h150v125h-150v-125zM199 149q0 28 19 43t51 23q12 3 40 9q23 4 38.5 8t26.5 11q0 -84 -23.5 -118.5t-80.5 -34.5q-31 0 -51 14.5t-20 44.5zM209 359q12 65 85 65q31 0 56.5 -13.5t25.5 -40.5q0 -23 -10.5 -33t-34.5 -15
q-21 -4 -69 -11q-55 -7 -91.5 -15t-69 -25t-52.5 -48.5t-20 -80.5q0 -77 49.5 -117t127.5 -40q49 0 94.5 15.5t76.5 48.5q4 -32 10 -49h171q-13 27 -16.5 57.5t-3.5 75.5v227q0 53 -19.5 87.5t-53.5 53.5t-76 26t-93 7q-48 0 -90 -8.5t-75 -27.5q-36 -21 -57.5 -55.5
t-23.5 -83.5h159z" />
    <glyph glyph-name="aring" unicode="&#xe5;" horiz-adv-x="593" 
d="M297 560q44 0 75.5 31.5t31.5 75.5q0 45 -31.5 76t-75.5 31t-75.5 -31.5t-31.5 -75.5q0 -43 31.5 -75t75.5 -32zM297 615q-22 0 -37 15.5t-15 36.5q0 22 15 37t37 15t37 -15t15 -37q0 -21 -15 -36.5t-37 -15.5zM199 149q0 28 19 43t51 23q12 3 40 9q23 4 38.5 8t26.5 11
q0 -84 -23.5 -118.5t-80.5 -34.5q-31 0 -51 14.5t-20 44.5zM209 359q12 65 85 65q31 0 56.5 -13.5t25.5 -40.5q0 -23 -10.5 -33t-34.5 -15q-21 -4 -69 -11q-55 -7 -91.5 -15t-69 -25t-52.5 -48.5t-20 -80.5q0 -77 49.5 -117t127.5 -40q49 0 94.5 15.5t76.5 48.5
q4 -32 10 -49h171q-13 27 -16.5 57.5t-3.5 75.5v227q0 53 -19.5 87.5t-53.5 53.5t-76 26t-93 7q-48 0 -90 -8.5t-75 -27.5q-36 -21 -57.5 -55.5t-23.5 -83.5h159z" />
    <glyph glyph-name="ae" unicode="&#xe6;" horiz-adv-x="944" 
d="M537 313q5 44 32.5 75t71.5 31q47 0 73 -30t26 -76h-203zM280 90q-32 0 -56.5 13.5t-24.5 44.5q0 29 20.5 43.5t57.5 21.5q13 3 35 6q30 5 48 10t29 14q0 -34 -3 -59.5t-13.5 -46.5t-33 -34t-59.5 -13zM742 157q-14 -30 -37.5 -43.5t-62.5 -13.5q-51 0 -77.5 34t-27.5 84
h373q0 5 1 15v14q0 59 -18 111t-52.5 92t-83.5 62t-110 22q-47 0 -88.5 -16t-73.5 -49q-29 36 -79.5 50.5t-109.5 14.5q-48 0 -90 -8.5t-75 -27.5q-36 -21 -57.5 -55.5t-23.5 -83.5h159q12 65 85 65q46 0 71 -12t25 -45q0 -16 -11 -25t-48 -20q-21 -4 -69 -11
q-55 -7 -91.5 -15t-69 -25t-52.5 -48.5t-20 -80.5q0 -77 51 -117t136 -40q77 0 132 18t108 61q33 -41 86.5 -60t113.5 -19q87 0 154 46q34 23 58 55t34 71h-160z" />
    <glyph glyph-name="ccedilla" unicode="&#xe7;" horiz-adv-x="593" 
d="M400 204q-6 -43 -30 -66t-67 -23q-50 0 -75.5 40t-25.5 96q0 31 4.5 57t16 48t33.5 35t56 13q33 0 57.5 -21.5t25.5 -53.5h165q-9 98 -81.5 151.5t-174.5 53.5q-62 0 -112 -20.5t-86 -58.5t-55 -90t-19 -114q0 -110 68 -182q32 -34 76 -55t97 -26l-49 -80l22 -19
q23 7 40 7q43 0 43 -38q0 -35 -51 -35q-37 4 -82 19l-19 -45q30 -13 59.5 -22t58.5 -9q58 0 93 23t35 74q0 41 -25.5 60.5t-59.5 19.5q-24 0 -40 -5l-2 2l31 47q97 5 162.5 63t75.5 154h-165z" />
    <glyph glyph-name="egrave" unicode="&#xe8;" horiz-adv-x="611" 
d="M303 724h-180l157 -149h120zM202 313q8 48 37 77t73 29q42 0 70.5 -30.5t30.5 -75.5h-211zM583 218v11q1 6 1 10q0 63 -17.5 116.5t-52 94t-86 62.5t-116.5 22q-57 0 -108 -20t-89.5 -57t-60.5 -87t-22 -109q0 -129 78 -202.5t206 -73.5q93 0 164.5 43.5t93.5 128.5h-159
q-12 -27 -38.5 -42t-58.5 -15q-53 0 -83.5 32t-32.5 86h381z" />
    <glyph glyph-name="eacute" unicode="&#xe9;" horiz-adv-x="611" 
d="M300 724l-97 -149h120l157 149h-180zM202 313q8 48 37 77t73 29q42 0 70.5 -30.5t30.5 -75.5h-211zM583 218v11q1 6 1 10q0 63 -17.5 116.5t-52 94t-86 62.5t-116.5 22q-57 0 -108 -20t-89.5 -57t-60.5 -87t-22 -109q0 -129 78 -202.5t206 -73.5q93 0 164.5 43.5
t93.5 128.5h-159q-12 -27 -38.5 -42t-58.5 -15q-53 0 -83.5 32t-32.5 86h381z" />
    <glyph glyph-name="ecircumflex" unicode="&#xea;" horiz-adv-x="611" 
d="M306 655l60 -80h128l-112 149h-152l-112 -149h128zM202 313q8 48 37 77t73 29q42 0 70.5 -30.5t30.5 -75.5h-211zM583 218v11q1 6 1 10q0 63 -17.5 116.5t-52 94t-86 62.5t-116.5 22q-57 0 -108 -20t-89.5 -57t-60.5 -87t-22 -109q0 -129 78 -202.5t206 -73.5
q93 0 164.5 43.5t93.5 128.5h-159q-12 -27 -38.5 -42t-58.5 -15q-53 0 -83.5 32t-32.5 86h381z" />
    <glyph glyph-name="edieresis" unicode="&#xeb;" horiz-adv-x="611" 
d="M488 589v125h-150v-125h150zM125 589h150v125h-150v-125zM202 313q8 48 37 77t73 29q42 0 70.5 -30.5t30.5 -75.5h-211zM583 218v11q1 6 1 10q0 63 -17.5 116.5t-52 94t-86 62.5t-116.5 22q-57 0 -108 -20t-89.5 -57t-60.5 -87t-22 -109q0 -129 78 -202.5t206 -73.5
q93 0 164.5 43.5t93.5 128.5h-159q-12 -27 -38.5 -42t-58.5 -15q-53 0 -83.5 32t-32.5 86h381z" />
    <glyph glyph-name="igrave" unicode="&#xec;" horiz-adv-x="296" 
d="M145 724h-180l157 -149h120zM233 0v519h-170v-519h170z" />
    <glyph glyph-name="iacute" unicode="&#xed;" horiz-adv-x="296" 
d="M142 724l-97 -149h120l157 149h-180zM233 0v519h-170v-519h170z" />
    <glyph glyph-name="icircumflex" unicode="&#xee;" horiz-adv-x="296" 
d="M148 655l60 -80h128l-112 149h-152l-112 -149h128zM233 0v519h-170v-519h170z" />
    <glyph glyph-name="idieresis" unicode="&#xef;" horiz-adv-x="296" 
d="M330 589v125h-150v-125h150zM-33 589h150v125h-150v-125zM233 0v519h-170v-519h170z" />
    <glyph glyph-name="eth" unicode="&#xf0;" horiz-adv-x="611" 
d="M202 242q0 22 5.5 44t17.5 41t32 30.5t48 11.5t48.5 -11.5t32.5 -30.5t17.5 -41.5t5.5 -43.5q0 -22 -5.5 -44t-17.5 -41t-32.5 -30.5t-48.5 -11.5t-48 11.5t-32 30.5t-17.5 41t-5.5 44zM92 582l67 -60l128 70q60 -56 87 -112l-2 -2q-19 12 -43.5 16.5t-53.5 4.5
q-49 0 -93 -19.5t-77.5 -54.5t-53 -82t-19.5 -101t20 -101.5t56.5 -82.5t87 -54t109.5 -19q123 0 198.5 79.5t75.5 217.5q0 55 -12.5 109.5t-35.5 104t-54 91t-67 72.5l119 65l-68 61l-124 -68q-16 14 -48 32t-65 29l-113 -78q45 -14 102 -52z" />
    <glyph glyph-name="ntilde" unicode="&#xf1;" 
d="M434 714q-2 -16 -14 -28.5t-28 -12.5q-11 0 -27 5.5t-38 15.5q-25 10 -43.5 15t-36.5 5q-50 0 -82 -41t-39 -95h71q3 18 15.5 31.5t28.5 13.5q17 0 55 -15l9 -3q48 -18 81 -18q53 0 82.5 35.5t36.5 91.5h-71zM57 0h170v283q0 47 23.5 79t68.5 32q55 0 70 -32.5t15 -110.5
v-251h170v333q0 36 -6 68.5t-24.5 63t-57 50t-99.5 19.5q-48 0 -94 -23.5t-69 -62.5h-2v71h-165v-519z" />
    <glyph glyph-name="ograve" unicode="&#xf2;" horiz-adv-x="611" 
d="M303 724h-180l157 -149h120zM202 259q0 27 5.5 52.5t17.5 46.5t32 33.5t48 12.5t48.5 -12.5t32.5 -34t17.5 -47t5.5 -51.5t-5.5 -51.5t-17.5 -46.5t-32.5 -33.5t-48.5 -12.5t-48 12.5t-32 33.5t-17.5 46t-5.5 52zM32 259q0 -58 20 -108t56.5 -87.5t87 -58t109.5 -20.5
t110 20.5t87.5 58t56.5 87.5t20 108t-20 108.5t-57 88t-87.5 58t-109.5 20.5t-109.5 -20.5t-87 -58t-56.5 -88t-20 -108.5z" />
    <glyph glyph-name="oacute" unicode="&#xf3;" horiz-adv-x="611" 
d="M300 724l-97 -149h120l157 149h-180zM202 259q0 27 5.5 52.5t17.5 46.5t32 33.5t48 12.5t48.5 -12.5t32.5 -34t17.5 -47t5.5 -51.5t-5.5 -51.5t-17.5 -46.5t-32.5 -33.5t-48.5 -12.5t-48 12.5t-32 33.5t-17.5 46t-5.5 52zM32 259q0 -58 20 -108t56.5 -87.5t87 -58
t109.5 -20.5t110 20.5t87.5 58t56.5 87.5t20 108t-20 108.5t-57 88t-87.5 58t-109.5 20.5t-109.5 -20.5t-87 -58t-56.5 -88t-20 -108.5z" />
    <glyph glyph-name="ocircumflex" unicode="&#xf4;" horiz-adv-x="611" 
d="M306 655l60 -80h128l-112 149h-152l-112 -149h128zM202 259q0 27 5.5 52.5t17.5 46.5t32 33.5t48 12.5t48.5 -12.5t32.5 -34t17.5 -47t5.5 -51.5t-5.5 -51.5t-17.5 -46.5t-32.5 -33.5t-48.5 -12.5t-48 12.5t-32 33.5t-17.5 46t-5.5 52zM32 259q0 -58 20 -108t56.5 -87.5
t87 -58t109.5 -20.5t110 20.5t87.5 58t56.5 87.5t20 108t-20 108.5t-57 88t-87.5 58t-109.5 20.5t-109.5 -20.5t-87 -58t-56.5 -88t-20 -108.5z" />
    <glyph glyph-name="otilde" unicode="&#xf5;" horiz-adv-x="611" 
d="M425 714q-2 -16 -14 -28.5t-28 -12.5q-11 0 -27 5.5t-38 15.5q-25 10 -43.5 15t-36.5 5q-50 0 -82 -41t-39 -95h71q3 18 15.5 31.5t28.5 13.5q17 0 55 -15l9 -3q48 -18 81 -18q53 0 82.5 35.5t36.5 91.5h-71zM202 259q0 27 5.5 52.5t17.5 46.5t32 33.5t48 12.5
t48.5 -12.5t32.5 -34t17.5 -47t5.5 -51.5t-5.5 -51.5t-17.5 -46.5t-32.5 -33.5t-48.5 -12.5t-48 12.5t-32 33.5t-17.5 46t-5.5 52zM32 259q0 -58 20 -108t56.5 -87.5t87 -58t109.5 -20.5t110 20.5t87.5 58t56.5 87.5t20 108t-20 108.5t-57 88t-87.5 58t-109.5 20.5
t-109.5 -20.5t-87 -58t-56.5 -88t-20 -108.5z" />
    <glyph glyph-name="odieresis" unicode="&#xf6;" horiz-adv-x="611" 
d="M488 589v125h-150v-125h150zM125 589h150v125h-150v-125zM202 259q0 27 5.5 52.5t17.5 46.5t32 33.5t48 12.5t48.5 -12.5t32.5 -34t17.5 -47t5.5 -51.5t-5.5 -51.5t-17.5 -46.5t-32.5 -33.5t-48.5 -12.5t-48 12.5t-32 33.5t-17.5 46t-5.5 52zM32 259q0 -58 20 -108
t56.5 -87.5t87 -58t109.5 -20.5t110 20.5t87.5 58t56.5 87.5t20 108t-20 108.5t-57 88t-87.5 58t-109.5 20.5t-109.5 -20.5t-87 -58t-56.5 -88t-20 -108.5z" />
    <glyph glyph-name="divide" unicode="&#xf7;" horiz-adv-x="600" 
d="M552 181v144h-504v-144h504zM201 460q0 -41 29 -70t70 -29t70 29t29 70t-29 70t-70 29t-70 -29t-29 -70zM201 46q0 -41 29 -70t70 -29t70 29t29 70t-29 70t-70 29t-70 -29t-29 -70z" />
    <glyph glyph-name="oslash" unicode="&#xf8;" horiz-adv-x="611" 
d="M212 192q-10 30 -10 67q0 27 5.5 52.5t17.5 46.5t32 33.5t48 12.5q39 0 66 -27zM400 324q9 -31 9 -65q0 -26 -5.5 -51.5t-17.5 -46.5t-32.5 -33.5t-48.5 -12.5q-41 0 -64 26zM88 -34l58 66q69 -47 159 -47q59 0 110 20.5t87.5 58t56.5 87.5t20 108q0 56 -18 104t-53 85
l52 60l-44 38l-51 -60q-68 48 -160 48q-59 0 -109.5 -20.5t-87 -58t-56.5 -88t-20 -108.5q0 -57 19 -106t54 -86l-59 -69z" />
    <glyph glyph-name="ugrave" unicode="&#xf9;" 
d="M312 724h-180l157 -149h120zM573 519h-170v-278q0 -32 -8.5 -55t-23 -36.5t-30.5 -19t-31 -5.5q-42 0 -63 21.5t-21 71.5v301h-170v-312q0 -109 43 -165.5t149 -56.5q46 0 90.5 23.5t67.5 62.5h2v-71h165v519z" />
    <glyph glyph-name="uacute" unicode="&#xfa;" 
d="M309 724l-97 -149h120l157 149h-180zM573 519h-170v-278q0 -32 -8.5 -55t-23 -36.5t-30.5 -19t-31 -5.5q-42 0 -63 21.5t-21 71.5v301h-170v-312q0 -109 43 -165.5t149 -56.5q46 0 90.5 23.5t67.5 62.5h2v-71h165v519z" />
    <glyph glyph-name="ucircumflex" unicode="&#xfb;" 
d="M315 655l60 -80h128l-112 149h-152l-112 -149h128zM573 519h-170v-278q0 -32 -8.5 -55t-23 -36.5t-30.5 -19t-31 -5.5q-42 0 -63 21.5t-21 71.5v301h-170v-312q0 -109 43 -165.5t149 -56.5q46 0 90.5 23.5t67.5 62.5h2v-71h165v519z" />
    <glyph glyph-name="udieresis" unicode="&#xfc;" 
d="M497 589v125h-150v-125h150zM134 589h150v125h-150v-125zM573 519h-170v-278q0 -32 -8.5 -55t-23 -36.5t-30.5 -19t-31 -5.5q-42 0 -63 21.5t-21 71.5v301h-170v-312q0 -109 43 -165.5t149 -56.5q46 0 90.5 23.5t67.5 62.5h2v-71h165v519z" />
    <glyph glyph-name="yacute" unicode="&#xfd;" horiz-adv-x="537" 
d="M263 724l-97 -149h120l157 149h-180zM545 519h-174l-98 -338h-2l-98 338h-180l134 -361l8 -22q15 -40 25 -69.5t10 -44.5q0 -27 -19 -42.5t-49 -15.5h-59v-138h80q48 0 80 4.5t57.5 17.5t45 38t34.5 68z" />
    <glyph glyph-name="thorn" unicode="&#xfe;" 
d="M227 714h-170v-888h170v230h2q53 -71 148 -71q53 0 94.5 21.5t69 58.5t41.5 84.5t14 98.5q0 56 -13.5 107.5t-40.5 91.5t-69 63.5t-96 23.5q-95 0 -148 -72h-2v252zM325 404q27 0 46.5 -12t31.5 -32t17.5 -44.5t5.5 -50.5q0 -28 -5.5 -54.5t-17.5 -48t-32 -34.5t-47 -13
q-55 0 -79 39t-24 111q0 38 9.5 65.5t24.5 43.5t33 23t37 7z" />
    <glyph glyph-name="ydieresis" unicode="&#xff;" horiz-adv-x="537" 
d="M451 589v125h-150v-125h150zM88 589h150v125h-150v-125zM545 519h-174l-98 -338h-2l-98 338h-180l134 -361l8 -22q15 -40 25 -69.5t10 -44.5q0 -27 -19 -42.5t-49 -15.5h-59v-138h80q48 0 80 4.5t57.5 17.5t45 38t34.5 68z" />
    <glyph glyph-name="OE" unicode="&#x152;" horiz-adv-x="1111" 
d="M1059 714h-521v-47h-2q-26 33 -68.5 47.5t-91.5 14.5q-77 0 -140.5 -30t-107.5 -82.5t-67.5 -119.5t-23.5 -140t23.5 -140t67.5 -119.5t107.5 -82.5t140.5 -30q46 0 89.5 14t72.5 46v-45h529v160h-355v136h317v144h-317v125h347v149zM396 569q64 0 102 -48.5t38 -115.5
v-96q0 -67 -38 -115.5t-102 -48.5q-47 0 -80.5 17.5t-53.5 47t-29.5 67.5t-9.5 80t9.5 80t29.5 67.5t53.5 47t80.5 17.5z" />
    <glyph glyph-name="oe" unicode="&#x153;" horiz-adv-x="963" 
d="M553 313q3 45 33 75.5t75 30.5q49 0 73.5 -28t30.5 -78h-212zM202 262q0 28 6 53t18.5 45t34 32t51.5 12q29 0 48 -13t29.5 -34t14.5 -46t4 -52q0 -25 -5 -50t-16 -46.5t-30.5 -34.5t-46.5 -13q-32 0 -53.5 12.5t-33.5 33t-16.5 46t-4.5 55.5zM935 218q0 70 -16.5 127.5
t-49.5 100t-84 65.5t-119 23q-49 0 -99.5 -20.5t-78.5 -56.5q-29 41 -77 59t-105 18q-62 0 -113 -20.5t-87 -58t-55 -89.5t-19 -114q0 -59 18.5 -108t53 -85t83 -55t107.5 -19q58 0 106.5 18t80.5 58q33 -40 81 -58t105 -18q95 0 167 44t96 128h-162q-15 -31 -36.5 -44
t-57.5 -13q-52 0 -85.5 32.5t-33.5 85.5h380z" />
    <glyph glyph-name="Scaron" unicode="&#x160;" horiz-adv-x="667" 
d="M410 758l112 149h-128l-60 -80l-60 80h-128l112 -149h152zM23 240q0 -66 24.5 -115t68 -80t98.5 -45.5t119 -14.5q63 0 118 12.5t98.5 40.5t69 74.5t25.5 111.5q0 46 -17 80.5t-46 58.5t-64 39t-80 28q-26 7 -65 17q-74 17 -108 32.5t-34 44.5q0 32 27 46.5t63 14.5
q48 0 81.5 -20t33.5 -66h186q0 58 -24 102t-64.5 72.5t-91.5 42t-106 13.5q-53 0 -104.5 -12.5t-93.5 -39t-67.5 -68t-25.5 -97.5q0 -47 17.5 -81.5t47 -58t64.5 -38.5t80 -28q17 -5 55 -14q78 -20 114 -37.5t36 -52.5q0 -37 -33.5 -55t-80.5 -18q-63 0 -97.5 25.5
t-37.5 85.5h-186z" />
    <glyph glyph-name="scaron" unicode="&#x161;" horiz-adv-x="556" 
d="M354 575l112 149h-128l-60 -80l-60 80h-128l112 -149h152zM27 171q2 -52 23.5 -88.5t57.5 -58t79.5 -30.5t93.5 -9q47 0 91 10t79.5 31.5t57 57.5t21.5 86q0 18 -6.5 39t-21.5 41t-41 36.5t-63 23.5q-16 4 -48 9q-31 6 -56 11.5t-44.5 12.5t-31.5 17.5t-12 24.5
q0 24 21.5 31.5t51.5 7.5q34 0 54 -13q22 -14 22 -45h157q-2 49 -22.5 82t-54.5 51.5t-75 26.5t-87 8q-41 0 -82.5 -8t-76.5 -26t-56.5 -49.5t-21.5 -75.5q0 -42 15.5 -70t41.5 -44.5t56 -25.5t78 -19q36 -7 50 -11l8 -2q34 -7 54.5 -18t20.5 -35q0 -28 -25 -41.5t-55 -13.5
q-39 0 -63 18q-28 21 -28 58h-162z" />
    <glyph glyph-name="Ydieresis" unicode="&#x178;" horiz-adv-x="667" 
d="M516 772v125h-150v-125h150zM153 772h150v125h-150v-125zM687 714h-211l-142 -290l-142 290h-211l260 -448v-266h186v266z" />
    <glyph glyph-name="florin" unicode="&#x192;" 
d="M157 421l-20 -110h97l-57 -298q-7 -36 -22 -49t-42 -13q-18 0 -42 3l-19 -125q15 0 39 -2q24 -1 38 -1q53 0 90 9t63 29q50 40 69 142l57 305h96l20 110h-96l21 113q8 39 21.5 54.5t40.5 15.5q19 0 46 -3l23 125l-26 1q-35 2 -53 2q-98 0 -151 -38t-70 -132l-26 -138h-97
z" />
    <glyph glyph-name="circumflex" unicode="&#x2c6;" horiz-adv-x="296" 
d="M148 655l60 -80h128l-112 149h-152l-112 -149h128z" />
    <glyph glyph-name="tilde" unicode="&#x2dc;" horiz-adv-x="296" 
d="M267 714q-2 -16 -14 -28.5t-28 -12.5q-11 0 -27 5.5t-38 15.5q-25 10 -43.5 15t-36.5 5q-50 0 -82 -41t-39 -95h71q3 18 15.5 31.5t28.5 13.5q17 0 55 -15l9 -3q48 -18 81 -18q53 0 82.5 35.5t36.5 91.5h-71z" />
    <glyph glyph-name="endash" unicode="&#x2013;" horiz-adv-x="500" 
d="M0 200h500v144h-500v-144z" />
    <glyph glyph-name="emdash" unicode="&#x2014;" horiz-adv-x="1000" 
d="M130 200h740v144h-740v-144z" />
    <glyph glyph-name="quoteleft" unicode="&#x2018;" horiz-adv-x="296" 
d="M228 540h-72q0 37 20 62.5t52 31.5v80q-79 -13 -118.5 -64.5t-40.5 -129.5v-166h159v186z" />
    <glyph glyph-name="quoteright" unicode="&#x2019;" horiz-adv-x="296" 
d="M69 528h72q0 -37 -20 -62.5t-52 -31.5v-80q79 13 118.5 64.5t40.5 129.5v166h-159v-186z" />
    <glyph glyph-name="quotesinglbase" unicode="&#x201a;" horiz-adv-x="296" 
d="M69 0h72q0 -37 -20 -62.5t-52 -31.5v-80q79 13 118.5 64.5t40.5 129.5v166h-159v-186z" />
    <glyph glyph-name="quotedblleft" unicode="&#x201c;" horiz-adv-x="500" 
d="M214 540h-72q0 37 20 62.5t52 31.5v80q-79 -13 -118.5 -64.5t-40.5 -129.5v-166h159v186zM445 540h-72q0 37 20 62.5t52 31.5v80q-79 -13 -118.5 -64.5t-40.5 -129.5v-166h159v186z" />
    <glyph glyph-name="quotedblright" unicode="&#x201d;" horiz-adv-x="500" 
d="M286 528h72q0 -37 -20 -62.5t-52 -31.5v-80q79 13 118.5 64.5t40.5 129.5v166h-159v-186zM55 528h72q0 -37 -20 -62.5t-52 -31.5v-80q79 13 118.5 64.5t40.5 129.5v166h-159v-186z" />
    <glyph glyph-name="quotedblbase" unicode="&#x201e;" horiz-adv-x="500" 
d="M286 0h72q0 -37 -20 -62.5t-52 -31.5v-80q79 13 118.5 64.5t40.5 129.5v166h-159v-186zM55 0h72q0 -37 -20 -62.5t-52 -31.5v-80q79 13 118.5 64.5t40.5 129.5v166h-159v-186z" />
    <glyph glyph-name="dagger" unicode="&#x2020;" 
d="M233 376v-550h164v550h181v144h-181v194h-164v-194h-181v-144h181z" />
    <glyph glyph-name="daggerdbl" unicode="&#x2021;" 
d="M397 -174v194h182v144h-182v212h181v144h-181v194h-164v-194h-182v-144h182v-212h-182v-144h182v-194h164z" />
    <glyph glyph-name="bullet" unicode="&#x2022;" horiz-adv-x="500" 
d="M72 357q0 -37 14 -69.5t38.5 -57t57 -38.5t68.5 -14t69 13.5t58 38.5t38.5 58t13.5 69q0 37 -13.5 69t-38.5 57t-57.5 38.5t-69.5 13.5t-69.5 -13.5t-57 -38t-38 -57t-13.5 -69.5z" />
    <glyph glyph-name="ellipsis" unicode="&#x2026;" horiz-adv-x="1000" 
d="M260 0v186h-186v-186h186zM593 0v186h-186v-186h186zM926 0v186h-186v-186h186z" />
    <glyph glyph-name="perthousand" unicode="&#x2030;" horiz-adv-x="1167" 
d="M259 -27l404 751h-99l-404 -751h99zM71 532q0 -78 34.5 -125t109.5 -47t110.5 47t35.5 125q0 82 -33 128t-112 46q-75 0 -110 -48.5t-35 -125.5zM458 157q0 -78 34.5 -125t109.5 -47t110.5 47t35.5 125q0 82 -33 128t-112 46q-75 0 -110 -48.5t-35 -125.5zM556 157
q0 17 1.5 33t6 32t14 27t25.5 11t26 -10t14.5 -25.5t5.5 -31t1 -36.5q0 -16 -1.5 -32t-6 -32t-14.5 -26.5t-26 -10.5t-25.5 10.5t-14 26.5t-5.5 31t-1 33zM806 157q0 -78 34.5 -125t109.5 -47t110.5 47t35.5 125q0 82 -33 128t-112 46q-75 0 -110 -48.5t-35 -125.5zM904 157
q0 17 1.5 33t6 32t14 27t25.5 11t26 -10t14.5 -25.5t5.5 -31t1 -36.5q0 -16 -1.5 -32t-6 -32t-14.5 -26.5t-26 -10.5t-25.5 10.5t-14 26.5t-5.5 31t-1 33zM169 532q0 17 1.5 33t6 32t14 27t25.5 11t26 -10t14.5 -25.5t5.5 -31t1 -36.5q0 -16 -1.5 -32t-6 -32t-14.5 -26.5
t-26 -10.5t-25.5 10.5t-14 26.5t-5.5 31t-1 33z" />
    <glyph glyph-name="guilsinglleft" unicode="&#x2039;" horiz-adv-x="241" 
d="M41 194l159 -127v137l-86 66l86 67v137l-159 -128v-152z" />
    <glyph glyph-name="guilsinglright" unicode="&#x203a;" horiz-adv-x="241" 
d="M200 347l-159 127v-137l86 -66l-86 -67v-137l159 128v152z" />
    <glyph glyph-name="trademark" unicode="&#x2122;" horiz-adv-x="1000" 
d="M386 714h-345v-95h110v-317h125v317h110v95zM625 714h-156v-412h110v270h2l89 -270h88l89 270h2v-270h110v412h-156l-89 -239z" />
    </font>
</defs>
</svg>
